<svg xmlns="http://www.w3.org/2000/svg" width="61" height="60" viewBox="0 0 61 60">
  <g id="Group_34812" data-name="Group 34812" transform="translate(-382 -384)">
    <g id="Group_34399" data-name="Group 34399" transform="translate(8 157)">
      <g id="Path_70611" data-name="Path 70611" transform="translate(374 227)" fill="#e0e5f5">
        <path d="M 30.5 59.5 C 26.44878959655762 59.5 22.51910018920898 58.71971130371094 18.8200798034668 57.18080902099609 C 15.24754047393799 55.69451904296875 12.03909015655518 53.56679916381836 9.283860206604004 50.85673904418945 C 6.529210090637207 48.14725112915039 4.366630077362061 44.99240112304688 2.856169939041138 41.47983169555664 C 1.29272997379303 37.84403991699219 0.5 33.98165893554688 0.5 30 C 0.5 26.01833915710449 1.29272997379303 22.15596008300781 2.856169939041138 18.52017021179199 C 4.366630077362061 15.00759983062744 6.529210090637207 11.85274982452393 9.283860206604004 9.14326000213623 C 12.03909015655518 6.433199882507324 15.24754047393799 4.305480003356934 18.8200798034668 2.81919002532959 C 22.51910018920898 1.280290007591248 26.44878959655762 0.5 30.5 0.5 C 34.55120849609375 0.5 38.48091125488281 1.280290007591248 42.1799201965332 2.81919002532959 C 45.75246810913086 4.305480003356934 48.96091842651367 6.433199882507324 51.71614074707031 9.14326000213623 C 54.47079086303711 11.85274982452393 56.63338088989258 15.00759983062744 58.14382934570312 18.52017021179199 C 59.70727157592773 22.15596008300781 60.5 26.01833915710449 60.5 30 C 60.5 33.98165893554688 59.70727157592773 37.84403991699219 58.14382934570312 41.47983169555664 C 56.63338088989258 44.99240112304688 54.47079086303711 48.14725112915039 51.71614074707031 50.85673904418945 C 48.96091842651367 53.56679916381836 45.75246810913086 55.69451904296875 42.1799201965332 57.18080902099609 C 38.48091125488281 58.71971130371094 34.55120849609375 59.5 30.5 59.5 Z" stroke="none"/>
        <path d="M 30.5 1 C 26.51504898071289 1 22.64997100830078 1.767379760742188 19.01213836669922 3.280830383300781 C 15.49895858764648 4.742420196533203 12.3438606262207 6.834758758544922 9.634479522705078 9.499721527099609 C 6.926250457763672 12.16355895996094 4.800239562988281 15.26493072509766 3.315509796142578 18.71768951416016 C 1.779048919677734 22.29072952270508 1 26.08665084838867 1 30 C 1 33.91334915161133 1.779048919677734 37.70927047729492 3.315509796142578 41.28231048583984 C 4.800239562988281 44.73506927490234 6.926250457763672 47.83644104003906 9.634479522705078 50.50028228759766 C 12.3438606262207 53.16524124145508 15.49895858764648 55.2575798034668 19.01213836669922 56.71916961669922 C 22.64997100830078 58.23262023925781 26.51504898071289 59 30.5 59 C 34.48494720458984 59 38.35002136230469 58.23262023925781 41.98786163330078 56.71916961669922 C 45.50104141235352 55.2575798034668 48.6561393737793 53.16524124145508 51.36552047729492 50.50028228759766 C 54.07374954223633 47.83644104003906 56.19976043701172 44.73506927490234 57.68449020385742 41.28231048583984 C 59.22095108032227 37.70927047729492 60 33.91334915161133 60 30 C 60 26.08665084838867 59.22095108032227 22.29072952270508 57.68449020385742 18.71768951416016 C 56.19976043701172 15.26493072509766 54.07374954223633 12.16355895996094 51.36552047729492 9.499721527099609 C 48.6561393737793 6.834758758544922 45.50104141235352 4.742420196533203 41.98786163330078 3.280830383300781 C 38.35002136230469 1.767379760742188 34.48494720458984 1 30.5 1 M 30.5 0 C 47.34468078613281 0 61 13.43146133422852 61 30 C 61 46.56853866577148 47.34468078613281 60 30.5 60 C 13.65531158447266 60 0 46.56853866577148 0 30 C 0 13.43146133422852 13.65531158447266 0 30.5 0 Z" stroke="none" fill="#cdd9f1"/>
      </g>
    </g>
    <g id="Group_34448" data-name="Group 34448" transform="translate(397 398)">
      <path id="Path_70643" data-name="Path 70643" d="M0,0H32V32H0Z" fill="none"/>
      <path id="Path_70644" data-name="Path 70644" d="M14.5,19.038v8.2h3v-8.2C23.419,19.717,28,24.366,28,30H4c0-5.567,4.5-10.265,10.5-10.962ZM16,17.571c-4.973,0-9-3.708-9-8.286S11.027,1,16,1s9,3.708,9,8.286S20.972,17.571,16,17.571Z" fill="#2e5bff"/>
    </g>
  </g>
</svg>
