<svg xmlns="http://www.w3.org/2000/svg" width="40" height="40" viewBox="0 0 40 40">
  <g id="Group_34355" data-name="Group 34355" transform="translate(-55 -329)">
    <g id="Group_4141" data-name="Group 4141">
      <circle id="Ellipse_3" data-name="Ellipse 3" cx="20" cy="20" r="20" transform="translate(55 329)" fill="rgba(246,176,25,0.2)"/>
      <g id="Group_4140" data-name="Group 4140">
        <path id="Icon_ionic-ios-star-outline" data-name="Icon ionic-ios-star-outline" d="M20.9,9.606H14.534L12.6,3.834a.7.7,0,0,0-1.315,0L9.35,9.606H2.942a.694.694,0,0,0-.692.692.509.509,0,0,0,.013.117.665.665,0,0,0,.29.489L7.784,14.59,5.776,20.427a.694.694,0,0,0,.238.779.67.67,0,0,0,.389.169.848.848,0,0,0,.433-.156l5.106-3.639,5.106,3.639a.811.811,0,0,0,.433.156.622.622,0,0,0,.385-.169.686.686,0,0,0,.238-.779L16.1,14.59l5.188-3.721.125-.108a.726.726,0,0,0,.225-.463A.733.733,0,0,0,20.9,9.606Zm-5.5,4a1.215,1.215,0,0,0-.441,1.376l1.3,3.795a.174.174,0,0,1-.264.2l-3.349-2.388a1.209,1.209,0,0,0-.705-.225,1.187,1.187,0,0,0-.7.225L7.888,18.974a.173.173,0,0,1-.264-.2l1.3-3.795A1.219,1.219,0,0,0,8.481,13.6l-3.5-2.471a.174.174,0,0,1,.1-.316H9.346a1.21,1.21,0,0,0,1.147-.826l1.281-3.816a.174.174,0,0,1,.329,0l1.281,3.816a1.21,1.21,0,0,0,1.147.826h4.21a.171.171,0,0,1,.1.312Z" transform="translate(59.558 336.625)" fill="#f6b019"/>
        <path id="Subtraction_1" data-name="Subtraction 1" d="M-2955.461-1675a.8.8,0,0,1-.433-.156l-5.106-3.639-3.5,2.494v-1.5l2.795-1.99a1.176,1.176,0,0,1,.7-.225,1.2,1.2,0,0,1,.706.225l3.349,2.388a.175.175,0,0,0,.1.032.179.179,0,0,0,.144-.075.166.166,0,0,0,.02-.156l-1.3-3.794a1.22,1.22,0,0,1,.442-1.376l3.444-2.488a.167.167,0,0,0,.066-.191.169.169,0,0,0-.165-.121h-4.21a1.207,1.207,0,0,1-1.146-.826l-1.281-3.816a.17.17,0,0,0-.165-.117.17.17,0,0,0-.165.117l-1.281,3.816a1.206,1.206,0,0,1-1.147.826h-.9v-1.2h.908l1.934-5.772A.679.679,0,0,1-2961-1693a.679.679,0,0,1,.658.459l1.934,5.772h6.365a.733.733,0,0,1,.735.692.708.708,0,0,1-.225.464l-.125.108-5.189,3.721,2.008,5.837a.685.685,0,0,1-.238.778A.622.622,0,0,1-2955.461-1675Zm-9.037-4.99h0v-2.817l.039.027a1.213,1.213,0,0,1,.446,1.384Z" transform="translate(3039.5 2033)" fill="#f6b019"/>
      </g>
    </g>
  </g>
</svg>
