<svg xmlns="http://www.w3.org/2000/svg" width="28.474" height="31.641" viewBox="0 0 28.474 31.641">
  <g id="notification" transform="translate(-44.602)">
    <g id="Group_1017" data-name="Group 1017" transform="translate(44.602)">
      <g id="Group_1016" data-name="Group 1016" transform="translate(0)">
        <path id="Path_1395" data-name="Path 1395" d="M92.04,23.3c-.011-.021-.022-.041-.034-.061a1.983,1.983,0,0,0-.728-.771c-2.135-1.232-3.427-4.584-3.84-9.963a9.305,9.305,0,0,0-6.853-8.245,2.77,2.77,0,1,0-4.662,0,9.306,9.306,0,0,0-6.853,8.245c-.413,5.379-1.705,8.731-3.84,9.963a2.808,2.808,0,0,0-1.162,2.191c-.092.7-.12,2.167.431,2.718a.791.791,0,0,0,.559.232H73.5a4.819,4.819,0,0,0,9.508,0h8.441a.791.791,0,0,0,.559-.232c.552-.552.523-2.02.431-2.719A4.056,4.056,0,0,0,92.04,23.3ZM78.254,1.582A1.188,1.188,0,1,1,77.066,2.77,1.189,1.189,0,0,1,78.254,1.582Zm0,28.477a3.244,3.244,0,0,1-3.14-2.447h6.28A3.243,3.243,0,0,1,78.254,30.059ZM90.878,26.03H65.63a4.675,4.675,0,0,1,0-1.056c.076-.707.279-1.065.4-1.133,2.651-1.53,4.164-5.2,4.627-11.212a7.625,7.625,0,0,1,15.213,0A24.863,24.863,0,0,0,87.267,19.7H84.294a.791.791,0,0,0,0,1.582h3.732a7.772,7.772,0,0,0,1.2,1.582H81.339a.791.791,0,0,0,0,1.582h9.452a3.684,3.684,0,0,1,.093.526A4.669,4.669,0,0,1,90.878,26.03Z" transform="translate(-64.017)" fill="#b2c2cd"/>
      </g>
    </g>
  </g>
</svg>
