<svg xmlns="http://www.w3.org/2000/svg" xmlns:xlink="http://www.w3.org/1999/xlink" width="425.241" height="300.086" viewBox="0 0 425.241 300.086">
  <defs>
    <linearGradient id="linear-gradient" x1="0.88" y1="0.5" x2="-0.12" y2="0.5" gradientUnits="objectBoundingBox">
      <stop offset="0" stop-color="#e0866b"/>
      <stop offset="1" stop-color="#a65d51"/>
    </linearGradient>
  </defs>
  <g id="Group_2600" data-name="Group 2600" transform="translate(0 0)">
    <g id="_ÎÓÈ_4" data-name="—ÎÓÈ 4" transform="translate(0)">
      <path id="Path_3269" data-name="Path 3269" d="M110.782,585.5c3.532-1.513,7.676-2.55,11.659-1.641a2.564,2.564,0,0,1,2.161,2.59,2.121,2.121,0,0,1-2.433,1.989,15.079,15.079,0,0,0-9.3,1.317C110.21,590.891,108.127,586.637,110.782,585.5Z" transform="translate(296.637 -453.772)" fill="#005468"/>
      <path id="Path_3270" data-name="Path 3270" d="M888.859,125.56c.657,6.277,1.164,12.572,1.821,18.848.355,3.4-4.181,3.86-4.538.453-.657-6.277-1.163-12.571-1.821-18.848C883.965,122.609,888.5,122.153,888.859,125.56Z" transform="translate(-687.84 -123.221)" fill="#005468"/>
      <path id="Path_3271" data-name="Path 3271" d="M182.963,428.144a59.558,59.558,0,0,1,11.583-7.06c2.694-1.222,4.327,3.527,1.655,4.739a54.358,54.358,0,0,0-10.541,6.483C183.284,434.131,180.6,429.96,182.963,428.144Z" transform="translate(203.245 -336.981)" fill="#005468"/>
      <path id="Path_3272" data-name="Path 3272" d="M258,286.719c4.31-3.373,8.029-7.362,12.34-10.734,2.179-1.706,5,1.561,2.818,3.266-4.311,3.372-8.029,7.361-12.339,10.733C258.642,291.689,255.824,288.424,258,286.719Z" transform="translate(105.674 -232.581)" fill="#005468"/>
      <path id="Path_3273" data-name="Path 3273" d="M462.074,140.607c1.007-2.928,4.873-.773,3.869,2.146a62.37,62.37,0,0,1-3.782,9.193c-.605,1.129-1.7,1.765-2.844,1.132a2.652,2.652,0,0,1-1.025-3.278A62.3,62.3,0,0,0,462.074,140.607Z" transform="translate(-143.1 -134.705)" fill="#005468"/>
      <path id="Path_3274" data-name="Path 3274" d="M684.651,144.059a2.39,2.39,0,0,1,2.879,1.742,2.577,2.577,0,0,1-1.03,3.23c.02.149.045.3.072.447.009.052.015.09.021.123s.008.034.014.056c.134.526.3,1.045.455,1.564.42,1.384.014,2.835-1.119,3.268a2.374,2.374,0,0,1-2.878-1.742,17.4,17.4,0,0,1-.942-4.907A3.906,3.906,0,0,1,684.651,144.059Z" transform="translate(-427.858 -138.112)" fill="#005468"/>
      <path id="Path_3275" data-name="Path 3275" d="M1080.768,138.643a25.683,25.683,0,0,1,2.585,11.035c.062,3.417-4.515,3.332-4.577-.078a19.369,19.369,0,0,0-1.911-8.41C1075.357,138.173,1079.256,135.622,1080.768,138.643Z" transform="translate(-934.675 -133.322)" fill="#005468"/>
      <path id="Path_3276" data-name="Path 3276" d="M1206.353,205.771c1.751,2.869,4.144,5.141,5.9,8.012s-1.994,5.625-3.75,2.748-4.144-5.14-5.9-8.012S1204.6,202.894,1206.353,205.771Z" transform="translate(-1099.442 -181.626)" fill="#005468"/>
      <path id="Path_3277" data-name="Path 3277" d="M1343.327,305.517a113.232,113.232,0,0,0,9.34,7.362c2.459,1.81.02,6.355-2.45,4.538a113.275,113.275,0,0,1-9.339-7.363,2.96,2.96,0,0,1-.7-3.649C1340.791,305.273,1342.357,304.631,1343.327,305.517Z" transform="translate(-1279.229 -253.834)" fill="#005468"/>
      <path id="Path_3278" data-name="Path 3278" d="M1421.544,418.442c2.7,2.3,5.9,3.964,8.59,6.269a2.178,2.178,0,0,1,.379,3.069c-.69.948-2.255,1.451-3.13.7-2.7-2.3-5.894-3.964-8.59-6.268a2.178,2.178,0,0,1-.379-3.068C1419.1,418.2,1420.669,417.694,1421.544,418.442Z" transform="translate(-1378.541 -334.967)" fill="#005468"/>
      <path id="Path_3279" data-name="Path 3279" d="M1521.305,965.168c6.307.224,12.611.6,18.918.82,3.421.122,3.241,4.677-.182,4.557-6.309-.222-12.611-.6-18.919-.819C1517.7,969.606,1517.883,965.049,1521.305,965.168Z" transform="translate(-1518.646 -727.842)" fill="#005468"/>
      <path id="Path_3280" data-name="Path 3280" d="M1520.258,1085.434c.129-.078.255-.16.381-.244l.1-.069c.016-.011.028-.023.047-.036.426-.336.834-.7,1.244-1.052a2.573,2.573,0,0,1,3.521-.2,2.458,2.458,0,0,1-.331,3.458,16.288,16.288,0,0,1-4.117,2.833,4.094,4.094,0,0,1-4.623-.958,2.478,2.478,0,0,1,.329-3.461A2.582,2.582,0,0,1,1520.258,1085.434Z" transform="translate(-1501.297 -812.624)" fill="#005468"/>
      <path id="Path_3281" data-name="Path 3281" d="M101.67,743.807a19.382,19.382,0,0,0,8.533-1.253c3.125-1.269,5.365,2.817,2.236,4.088a25.664,25.664,0,0,1-11.2,1.722C97.824,748.16,98.264,743.6,101.67,743.807Z" transform="translate(310.306 -567.806)" fill="#005468"/>
      <path id="Path_3282" data-name="Path 3282" d="M1492.536,541.43a70.658,70.658,0,0,1,9.826,4.087c1.2.642,1.854,1.762,1.129,2.88a3.01,3.01,0,0,1-3.584.915,70.467,70.467,0,0,0-9.827-4.087C1486.946,544.121,1489.409,540.329,1492.536,541.43Z" transform="translate(-1471.279 -423.405)" fill="#005468"/>
      <path id="Path_3283" data-name="Path 3283" d="M1538.417,807.566a2.583,2.583,0,0,1,2.923,1.846c.15.014.3.024.451.032l.125.008h.058c.543-.014,1.085-.057,1.626-.1a2.57,2.57,0,0,1,2.939,1.945,2.46,2.46,0,0,1-2.335,2.573,16.414,16.414,0,0,1-4.994-.2,4.1,4.1,0,0,1-3.13-3.536A2.479,2.479,0,0,1,1538.417,807.566Z" transform="translate(-1527.411 -614.651)" fill="#005468"/>
      <path id="Path_3284" data-name="Path 3284" d="M98.172,942.211a72.6,72.6,0,0,1,10.746-.079c1.377.12,2.464.888,2.3,2.186a2.848,2.848,0,0,1-2.859,2.221,72.739,72.739,0,0,0-10.746.08C94.268,946.827,94.84,942.418,98.172,942.211Z" transform="translate(314.01 -711.179)" fill="#005468"/>
      <path id="Path_3285" data-name="Path 3285" d="M1538.871,674.554a2.58,2.58,0,0,1,2.249,2.624c.139.058.28.113.422.164l.117.044.056.016c.523.147,1.054.265,1.582.386a2.573,2.573,0,0,1,2.238,2.726,2.461,2.461,0,0,1-2.99,1.772,16.355,16.355,0,0,1-4.714-1.659,4.094,4.094,0,0,1-1.95-4.3A2.478,2.478,0,0,1,1538.871,674.554Z" transform="translate(-1526.345 -519.111)" fill="#005468"/>
      <path id="Path_3286" data-name="Path 3286" d="M138.466,1084.886c3.807.938,7.8,2.559,10.428,5.461a2.119,2.119,0,0,1,.089,3.051,2.38,2.38,0,0,1-3.225.02c-2.134-2.36-5.233-3.59-8.327-4.353A2.154,2.154,0,1,1,138.466,1084.886Z" transform="translate(264.271 -813.759)" fill="#005468"/>
    </g>
    <g id="_ÎÓÈ_8" data-name="—ÎÓÈ 8" transform="translate(43.056 41.017)">
      <path id="Path_3287" data-name="Path 3287" d="M308.867,913.828a30.728,30.728,0,0,0,4.907-4.951c4.146.64,8.182,1.293,11.848,1.6a610.79,610.79,0,0,0,93.736.92c34.94-2.5,67.5.592,101.978.525,9.609-.018,28.824-1.424,37.12,4.133,10.125,6.783-5.015,14.853-9.962,18.79C540.88,940.905,533.3,947,525.659,953.021c-2.049,1.615-29.68,21.15-29.787,20.536-5.774-.257-189.9-9.523-224-12.422-13.8-1.175-16.325-3.115-13.593-10.427C275.192,938.468,292.623,926.867,308.867,913.828Z" transform="translate(-225.33 -728.436)" fill="#62a478"/>
      <path id="Path_3288" data-name="Path 3288" d="M326.8,799.682q1-.818,2.03-1.562c9.833-7.09,21.967-9.406,32.143-15.8a176.161,176.161,0,0,0,18.362-13.444c4.408-3.624,10.036-10.5,16.011-10.565,1.806,6.1-1.142,13.187-1.321,19.522-.178,6.283.02,13.1,2.185,19.071,2.514,6.943,5.286,7.844.449,14.4-6.8,9.222-17.664,15.262-26.838,21.784-10.9,7.749-22.313,15.607-34.67,20.863-21.761,9.257-24.653-11.525-21.32-28.054C315.8,816.109,318.934,806.145,326.8,799.682Z" transform="translate(-78.376 -620.313)" fill="#eeeceb"/>
      <path id="Path_3289" data-name="Path 3289" d="M292.89,734.826c5.441-5.464,13-9.788,17.967-13.662,11.579-9.038,23.156-18.1,34.157-27.843a33.678,33.678,0,0,0,5.036-5.6c4.238.7,243.2,3.284,255.363,10.809-.348,1.637-.731,3.279-1.1,4.918-18.8,15.765-38.561,30.247-57.571,45.748a30.506,30.506,0,0,0-6.375,7.165c-5.9-.263-11.86-.212-17.637-.456-37.054-1.571-74.3.815-111.4,1.055-18.669.119-37.251-1.917-55.739-4.291-14.843-1.906-28.564-5.022-43.184-1.162-6.579,1.737-13.336,3.568-20.237,2.56-6.708-.982-6.2-.919-5.981-6.126C286.4,742.88,289.148,738.583,292.89,734.826Z" transform="translate(-276.986 -569.62)" fill="#79c193"/>
      <path id="Path_3290" data-name="Path 3290" d="M489.352,860.414c32.752-1.267,241.537,4.954,250.683,9.2-.164.133-2.722.453-2.884.588-17.643,14.859-19.737,54.339.059,69.095-5.954,6.469-254.1-5.7-263.718-13.167-7.631-5.93-11.726-17.52-12.485-28.972-.539-8.122.6-16.174,3.352-22.082C471.229,860.325,475.37,860.953,489.352,860.414Z" transform="translate(-460.878 -693.514)" fill="#62a478"/>
      <path id="Path_3291" data-name="Path 3291" d="M329.632,963.817c17.046-8.51,31.381-21.426,46.136-33.266,2.086-1.676,4.769,1.493,2.677,3.171-15.035,12.067-29.657,25.172-47.028,33.843C329.017,968.764,327.242,965.01,329.632,963.817Z" transform="translate(-62.732 -743.66)" fill="#c0cbd6"/>
      <path id="Path_3292" data-name="Path 3292" d="M321.49,913.4a231.63,231.63,0,0,0,37.819-29.637c1.932-1.835,5,.964,3.055,2.811a236.8,236.8,0,0,1-38.632,30.32C321.45,918.306,319.212,914.809,321.49,913.4Z" transform="translate(-44.269 -709.974)" fill="#c0cbd6"/>
      <path id="Path_3293" data-name="Path 3293" d="M350.5,892.193c11.583-9.679,25.755-16.08,35.794-27.567,1.761-2.016,4.551,1.063,2.808,3.058-10.05,11.5-24.207,17.884-35.794,27.565C351.255,896.961,348.437,893.911,350.5,892.193Z" transform="translate(-79.176 -696.186)" fill="#c0cbd6"/>
      <path id="Path_3294" data-name="Path 3294" d="M328.363,831.584c10.861-4.561,19.714-12.375,28.465-20.066,2-1.755,5,1.111,2.989,2.881-9.33,8.2-18.7,16.306-30.276,21.166C327.071,836.6,325.925,832.608,328.363,831.584Z" transform="translate(-43.592 -658.127)" fill="#c0cbd6"/>
      <path id="Path_3295" data-name="Path 3295" d="M628.569,882.831a9.621,9.621,0,0,1,1.051-.769c4.655-2.943,10.559-.936,16.018-.652-15.326,22.192-18.9,48.367-5.22,73.326-.5-.913-9.972.352-11.554-.115-4.76-1.4-5.584-3.415-7.587-7.849C613.5,929.566,612.864,896.042,628.569,882.831Z" transform="translate(-410.188 -708.042)" fill="#172534"/>
      <path id="Path_3296" data-name="Path 3296" d="M736.92,878.287c3.2-1.418,9.18.854,12.652.267.06.177.125.352.193.526-6.98,6.53-9.056,21.744-9,30.486.073,12.54,1.4,30.122,6.426,41.443-4.622-.581-9.981,3.208-13.016-.664-5.709-7.285-6.977-19.37-7.933-26.153-.94-6.673-.974-22.48,3.582-34.748C731.644,884.533,731.787,880.562,736.92,878.287Z" transform="translate(-545.264 -706.129)" fill="#ffb134"/>
      <path id="Path_3297" data-name="Path 3297" d="M908.9,915.4c8.615-2.315,17.754-2.879,26.639-2.949,15.432-.12,69.917-1.105,66.594,25.646-.761,6.125-4.821,10.691-9.706,14.11-12.174,8.518-28.816,10.737-43.269,11.521-15.551.845-32.373-.525-46.531-7.473-5.361-2.63-10.46-6.729-13.01-12.25-2.657-5.751-2.506-12.81,1.234-18.055C895.026,920.088,902.192,917.2,908.9,915.4Z" transform="translate(-843.462 -730.976)" fill="#fff"/>
      <path id="Path_3298" data-name="Path 3298" d="M482.045,878.168c3.886-3.323,9.446,2.318,5.561,5.643-17.811,15.24-15.194,46.172-1.775,63.338,3.087,3.946-2.9,9.143-6.018,5.15C463.762,931.767,460.686,896.443,482.045,878.168Z" transform="translate(-211.465 -705.656)" fill="#528a64"/>
      <path id="Path_3299" data-name="Path 3299" d="M258.212,988.537c10.579-7.167,21.414-13.842,31.581-21.663,6.292-4.84,12.6-9.628,18.721-14.616.806-.658,12.316-12.773,9.416-13.662,3.253,1,4.137,6.6,3.169,9.447-1.231,3.621-5.646,6.085-8.2,8.581-3.39,3.314-6.655,6.573-10.337,9.556-8.934,7.238-18.333,13.814-27.807,20.249-3.937,2.675-7.248,6.3-11.477,8.543-1.508.8-4.076,2.357-5.813,1.362C254.7,994.745,255.975,990.053,258.212,988.537Z" transform="translate(15.469 -749.778)" fill="#528a64"/>
      <path id="Path_3300" data-name="Path 3300" d="M293,752.8a277.781,277.781,0,0,0,25.046-15.22c.8-.534,13.009-11.277,9.9-12.8,11.974,5.862-12.937,21.948-17.63,24.788-7.693,4.655-14.788,8.5-21.783,13.949-2.153,1.677-6.787,5.613-9.875,4.741s-2.873-2.684-1.12-4.781C281.139,759.17,291.288,753.683,293,752.8Z" transform="translate(0.026 -596.23)" fill="#e9931b"/>
      <path id="Path_3301" data-name="Path 3301" d="M872.6,691.385a33,33,0,0,0-4.946-15.235c-.548-.836,15.948-.726,16.592-.687a191.56,191.56,0,0,1,22.31,2.528c11.376,2.026,23.6,1.282,35.232,2.947,5.873.841,11.731,1.812,17.721,2.748,11.312,1.772,22.676.239,33.986,1.308,18.48,1.746,19.02,28.287,14.919,39.972-8.557,24.38-69.858,6.322-92.347,5.069-15.622-.87-34.812,2.74-49.426-1.3a51.536,51.536,0,0,0,6.043-22.83A107.666,107.666,0,0,0,872.6,691.385Z" transform="translate(-845.713 -560.797)" fill="#eeeceb"/>
      <path id="Path_3302" data-name="Path 3302" d="M775.019,516.855c21.473-3.026,103.729,5.8,114.631,9.616-7.633,9.425-18.892,15.249-25.542,25.366-4.1,6.243-12.426,5.351-16.429,11.659-4.134,6.515-3.723,13.473-13.408,8.959-5.5-2.563-11.5-5.646-17.686-5.927-4.861-.221-9.53,1.1-14.462.767-9.5-.638-18.958-1.182-28.478-1.5-6.3-.207-71.975,1.009-75.255-6.8C696.68,554.935,765.408,518.211,775.019,516.855Z" transform="translate(-677.433 -446.471)" fill="#5595a6"/>
      <path id="Path_3303" data-name="Path 3303" d="M684.346,601.3c10.738-9.654,46.4-37.183,55.917-45.794,8.464,9.872,13.694,29.035,4.586,45.444-7.215,6.584-51.026,48.06-57.076,48.961,2.134-2.984,5.814-4.795,7.242-8.415,2.632-6.67,3.585-16.238,2.738-23.3A20.024,20.024,0,0,0,684.346,601.3Z" transform="translate(-533.465 -474.673)" fill="#005468"/>
      <path id="Path_3304" data-name="Path 3304" d="M851.721,717.315q7.344.079,14.7.23c25.14.512,50.265,1.673,75.385,2.89,11.581.562,23.186,1.418,34.778,1.493,16.977.108,19.226-19.13,16.7-29.38-1.755-7.112-2.51-12.147-11.367-14.3-12.326-3-26.615-1.118-39.27-2.079-29.3-2.226-58.563-5.047-87.914-6.2-3.224-.122-2.952-7.3.272-7.177,28.061,1.1,56.048,3.729,84.055,5.9,13.889,1.082,27.8,2.287,41.722,2.289,12.919.006,23.071,10.4,22.591,29.555-.215,8.656-3.3,16.769-8.2,21.974-9.174,9.738-19.424,6.69-29.792,6.274q-18.816-.753-37.635-1.454-38.145-1.434-76.29-2.836C848.219,724.375,848.505,717.282,851.721,717.315Z" transform="translate(-833.675 -551.716)" fill="#172534"/>
      <path id="Path_3305" data-name="Path 3305" d="M1216.285,844.811a.786.786,0,0,1-.106,1.563A.786.786,0,0,1,1216.285,844.811Z" transform="translate(-1150.512 -682.427)" fill="#fff"/>
      <path id="Path_3306" data-name="Path 3306" d="M917.246,698.823c43.35,1.678,86.3,7.782,129.649,9.459,2.527.1,2.413,3.121-.115,3.023-43.352-1.677-86.3-7.781-129.649-9.459C914.6,701.748,914.719,698.725,917.246,698.823Z" transform="translate(-897.665 -577.59)" fill="#c0cbd6"/>
      <path id="Path_3307" data-name="Path 3307" d="M910.2,724.874c20.515,3.127,41.456,3.809,62.161,5.664,22.1,1.979,44.21,4.362,66.451,4.459,2.531.011,2.406,3.034-.115,3.023-22.232-.1-44.362-2.447-66.45-4.459-21.064-1.92-42.321-2.629-63.2-5.811C906.568,727.372,907.742,724.5,910.2,724.874Z" transform="translate(-887.435 -596.275)" fill="#c0cbd6"/>
      <path id="Path_3308" data-name="Path 3308" d="M898.276,756.809c21.088-.757,42.119,2.847,63.141,3.9,11.664.582,23.267,1.443,34.908,2.315,5.464.409,10.874.968,16.314,1.557a87.087,87.087,0,0,0,16.276.647c2.483-.2,3.435,2.753.932,2.955-10.6.856-21.2-1.246-31.755-2-11.719-.836-23.4-1.912-35.154-2.379-21.6-.859-43.119-4.747-64.776-3.969C895.639,759.923,895.778,756.9,898.276,756.809Z" transform="translate(-874.903 -619.158)" fill="#c0cbd6"/>
      <path id="Path_3309" data-name="Path 3309" d="M892.575,780.966c22.547,2.419,45.253,3.188,67.926,4.093q17.32.691,34.584,2.244c5.208.463,10.335,1.079,15.481,1.893a108.811,108.811,0,0,0,16.541,1.794c2.531.011,2.407,3.034-.114,3.024-10.423-.044-20.754-2.655-31.1-3.6-11.5-1.055-23.037-1.8-34.583-2.289-22.985-.978-45.988-1.678-68.853-4.131C889.97,783.722,890.062,780.7,892.575,780.966Z" transform="translate(-870.928 -636.568)" fill="#c0cbd6"/>
      <path id="Path_3310" data-name="Path 3310" d="M917.006,810.8c40.649,1.588,81.017,9.082,121.789,7.041,2.47-.123,2.322,3.1-.122,3.223-40.773,2.042-81.14-5.453-121.789-7.04A1.629,1.629,0,1,1,917.006,810.8Z" transform="translate(-889.451 -658.007)" fill="#c0cbd6"/>
      <path id="Path_3311" data-name="Path 3311" d="M479.545,342.3a19.646,19.646,0,0,0,10.695-3.175c2.8-1.845,3.977-5.123,5.411-7.979,1.838-3.664,2.285-8.046,5.651-10.689-.884.694,2.132,8.166,2.6,9.02,1.546,2.807,3.347,3.38,6.18,4.153,2.557.7,3.117.86,2.2,3.728-1.127,3.511-3.276,6.608-3.187,10.436.062,2.614,1.55,4.86,1.318,7.57-.426,4.982-3.207,10.343-7.049,12.83-5.108,3.306-11.37,2.264-15.713-1.36-4.1-3.421-4.54-8.81-5.748-13.806a18.482,18.482,0,0,0-1.825-4.816c-1.186-2.115-3.755-4.159-4.337-6.476C477.686,342.161,477.478,342.383,479.545,342.3Z" transform="translate(-237.726 -305.878)" fill="url(#linear-gradient)"/>
      <g id="Group_2481" data-name="Group 2481" transform="translate(261.305 18.508)">
        <path id="Path_3312" data-name="Path 3312" d="M521,334.557c-.1.574-.274,1.15-.419,1.72l-.827-.414C519.7,335.126,519.8,333.966,521,334.557Z" transform="translate(-519.744 -334.395)" fill="#c67661"/>
      </g>
      <g id="Group_2482" data-name="Group 2482" transform="translate(268.285 20.309)">
        <path id="Path_3313" data-name="Path 3313" d="M499.436,340.789v0l0,.005Z" transform="translate(-499.436 -340.784)" fill="#daa699"/>
      </g>
      <g id="Group_2483" data-name="Group 2483" transform="translate(268.285 20.309)">
        <path id="Path_3314" data-name="Path 3314" d="M499.436,340.789v0l0,.005Z" transform="translate(-499.436 -340.784)" fill="#daa699"/>
      </g>
      <g id="Group_2484" data-name="Group 2484" transform="translate(265.833 16.063)">
        <path id="Path_3315" data-name="Path 3315" d="M508.141,325.762v-.042A.087.087,0,0,0,508.141,325.762Z" transform="translate(-508.139 -325.72)" fill="#dfafa1"/>
      </g>
      <path id="Path_3316" data-name="Path 3316" d="M499.734,335.707V335.7l0,.007Z" transform="translate(-231.533 -316.825)" fill="#daa699"/>
      <path id="Path_3317" data-name="Path 3317" d="M508.855,319.716v-.041A.071.071,0,0,0,508.855,319.716Z" transform="translate(-243.221 -305.316)" fill="#dfafa1"/>
      <g id="Group_2485" data-name="Group 2485" transform="translate(277.262 21.622)">
        <path id="Path_3318" data-name="Path 3318" d="M467.041,345.5l-.051-.009c.039.006.079.01.117.011Z" transform="translate(-466.935 -345.477)" fill="#d94939"/>
        <path id="Path_3319" data-name="Path 3319" d="M467.462,345.457a.4.4,0,0,1-.056-.014Z" transform="translate(-467.406 -345.443)" fill="#d94939"/>
      </g>
      <g id="Group_2486" data-name="Group 2486" transform="translate(267.279 20.817)">
        <path id="Path_3320" data-name="Path 3320" d="M503,342.592v-.005l0,.007Z" transform="translate(-503.005 -342.587)" fill="#daa699"/>
      </g>
      <g id="Group_2487" data-name="Group 2487" transform="translate(264.853 16.507)">
        <path id="Path_3321" data-name="Path 3321" d="M511.616,327.294v.041A.067.067,0,0,1,511.616,327.294Z" transform="translate(-511.613 -327.294)" fill="#dfafa1"/>
      </g>
      <path id="Path_3322" data-name="Path 3322" d="M484.117,340.766c.337,1.988.017,3.974.558,5.738a4.967,4.967,0,0,0,1.371,2.207c1.639,1.551,3.7,4.664,6.094,5.024.884.133,1.975-.725,2.9-.3.406.185-1.182,2.552-1.5,2.874a4.513,4.513,0,0,1-4.029,1.112c-4.438-.986-6.676-8.753-6.813-12.618a18.385,18.385,0,0,1,.044-3.075C482.853,340.887,483.764,338.668,484.117,340.766Z" transform="translate(-222.086 -319.832)" fill="#b05f57"/>
      <path id="Path_3323" data-name="Path 3323" d="M447.085,292.195c1.143.13,1.558,2.357,2.859,1.745.683-.321.579-1.665.781-2.276,1-3.051,2-6.342,4.226-8.729,1.688-1.813,3.563-.749,4.8.658,1.359,1.543,4.044,1.836,4.788,3.963.215.609-.041.933-.314,1.4.538.236,1.077.454,1.572.642a5.885,5.885,0,0,0,1.268.279,6.553,6.553,0,0,1,1.193.241c.785.265.554.783.472,1.6-.062.64-.157,1.277-.268,1.912-.254,1.461-.2,3.236-.848,4.6a19.417,19.417,0,0,0-1.9,4.473,18.669,18.669,0,0,1-2.816,5.55c-.693,1.081-1.962,1.819-2.836,2.746-1.646,1.741-3.14,2.809-5.436,2.2-1.876-.5-3.263-1.946-4.65-3.242a11.383,11.383,0,0,1-3.786-5.979c-.361-2.024.315-4.289-1.2-5.913C443.309,296.256,443.993,291.847,447.085,292.195Z" transform="translate(-184.943 -278.243)" fill="#eb8864"/>
      <g id="Group_2488" data-name="Group 2488" transform="translate(270.53 13.503)">
        <path id="Path_3324" data-name="Path 3324" d="M477.128,317.387a10.3,10.3,0,0,0,2.117.658c-.481.865-1.144,1.549-2.112.909-.157-.1-1.564-1.234-2.28-1.734-.233-.163-.391-.258-.412-.232C475.1,316.149,476.445,317.039,477.128,317.387Z" transform="translate(-474.441 -316.638)" fill="#243936"/>
      </g>
      <g id="Group_2489" data-name="Group 2489" transform="translate(260.57 16.027)">
        <path id="Path_3325" data-name="Path 3325" d="M523.3,325.784c-.146.665-.367,1.328-.56,1.986l-.823-.481C521.907,326.436,522.1,325.1,523.3,325.784Z" transform="translate(-521.914 -325.594)" fill="#c67661"/>
      </g>
      <g id="Group_2490" data-name="Group 2490" transform="translate(279.546 16.467)">
        <path id="Path_3326" data-name="Path 3326" d="M450.7,327.589c.755.151,1.292.127,1.07,1.149.039-.171-1.889.083-2.037.08a1.226,1.226,0,0,1-.585-.137c-.415-.244-.386-.8-.268-1.529C448.853,327.3,450.549,327.561,450.7,327.589Z" transform="translate(-448.799 -327.152)" fill="#243936"/>
      </g>
      <g id="Group_2491" data-name="Group 2491" transform="translate(262.041)">
        <path id="Path_3327" data-name="Path 3327" d="M426.769,269.186a2.59,2.59,0,0,1,1.733.847,4.214,4.214,0,0,0,1.091.738,3.843,3.843,0,0,1,6.2-.834c2.328,2.142,3.631,2.854,6.634,1.845,2.8-.941,3.777-.308,2.392,2.407h.008c.933.077,3.86-1.431,4.007.307.081.956-1.618,1.694-2,2.49.676-.025,2.612-.484,3.013.3.706,1.373-2.066,3.71-3.141,4.173a10.463,10.463,0,0,1-6.616.041,8.652,8.652,0,0,1-3.728-2.251c-.58-.611-.7-1.386-1.4-1.933A8.368,8.368,0,0,0,430,275.963c-1.5.042-1.415.584-2.158,1.955-1.663,3.074-2.167,6.819-3.89,9.8-1.826-.35-.335-2.767-.856-3.879-.416-.888-1.211-.781-1.248-2.076-.024-.836.356-1.658.377-2.5C422.3,276.2,422.34,269.37,426.769,269.186Z" transform="translate(-421.845 -268.734)" fill="#243936"/>
      </g>
      <path id="Path_3328" data-name="Path 3328" d="M497.546,339.471c-.112.1-.019.023.034-.022.981-.774,3.83,1.007,2.259,2.416C498.591,342.989,495.969,340.56,497.546,339.471Z" transform="translate(-231.343 -319.381)" fill="#ed6956"/>
      <path id="Path_3329" data-name="Path 3329" d="M499.853,285.291h0Z" transform="translate(-231.684 -280.624)" fill="#7f5e63"/>
      <path id="Path_3330" data-name="Path 3330" d="M471.469,336.221c.011,1.1-.5,2.173-.552,3.284a2.8,2.8,0,0,0,.242,1.108,3.464,3.464,0,0,1,.376,1.316c-.189,2.294-2.706.754-3.01-.673C468.295,340.175,469.709,335.34,471.469,336.221Z" transform="translate(-194.53 -317.121)" fill="#cc6c56"/>
      <g id="Group_2492" data-name="Group 2492" transform="translate(269.002 24.557)">
        <path id="Path_3331" data-name="Path 3331" d="M472.319,357.531c.641.452,6.144,2.734,6.353,2.483-1.707,2.053-2.35,2.806-3.222,2.516-2.349-.779-3.76-3.3-3.222-5.02Z" transform="translate(-471.683 -357.043)" fill="#fff"/>
        <path id="Path_3332" data-name="Path 3332" d="M495.015,355.856c.286.1-.317.733-.542.722a.218.218,0,0,1-.095-.026C494.346,356.535,494.843,355.8,495.015,355.856Z" transform="translate(-494.377 -355.852)" fill="#e0866b"/>
        <path id="Path_3333" data-name="Path 3333" d="M471.244,364.831c.026-.012.251.673.125.753-.2.131-.308-.568-.19-.706A.212.212,0,0,1,471.244,364.831Z" transform="translate(-464.141 -362.3)" fill="#e0866b"/>
        <path id="Path_3334" data-name="Path 3334" d="M479.52,366.356a5.745,5.745,0,0,1-2.853-1.8,6.458,6.458,0,0,1-.91-2.121,29.209,29.209,0,0,0,5.525,2.395A5.19,5.19,0,0,1,479.52,366.356Z" transform="translate(-475.32 -360.576)" fill="#ac3644"/>
        <path id="Path_3335" data-name="Path 3335" d="M484.028,367.792c.753.284,1.452,1.331,1.166,2.04-.11.275-1.484-.569-1.618-.665a4.44,4.44,0,0,1-1.591-1.711C482.274,367.27,483.429,367.567,484.028,367.792Z" transform="translate(-481.053 -364.143)" fill="#c04854"/>
      </g>
      <path id="Path_3336" data-name="Path 3336" d="M487.32,333.337a.639.639,0,0,1,1.19.467l-.039.1a.639.639,0,0,1-1.19-.466Z" transform="translate(-216.826 -314.837)" fill="#131212"/>
      <path id="Path_3337" data-name="Path 3337" d="M457.678,344.279a.511.511,0,0,1,.952.373l-.031.079a.512.512,0,0,1-.953-.373Z" transform="translate(-178.587 -322.753)" fill="#131212"/>
      <path id="Path_3338" data-name="Path 3338" d="M482.8,330.543a5.465,5.465,0,0,1,4,1.279.167.167,0,0,1,0,.276.281.281,0,0,1-.226.032.326.326,0,0,1-.122-.064,4.853,4.853,0,0,0-3.481-1.141.294.294,0,0,1-.318-.145A.17.17,0,0,1,482.8,330.543Z" transform="translate(-213.856 -313.083)" fill="#4b393d"/>
      <path id="Path_3339" data-name="Path 3339" d="M455.447,342.1a6.767,6.767,0,0,1,1.491.6l.041.02c.155.078.218.215.143.3a.369.369,0,0,1-.42.024l-.04-.018a5.985,5.985,0,0,0-1.266-.521,3.058,3.058,0,0,0-.544-.057c-.129-.008-.265-.014-.407-.033l-.006-.017a1.274,1.274,0,0,0-.3-.456,2.742,2.742,0,0,0,.6.073A4.236,4.236,0,0,1,455.447,342.1Z" transform="translate(-176.098 -321.311)" fill="#4b393d"/>
      <path id="Path_3340" data-name="Path 3340" d="M477.966,281.555a11.683,11.683,0,0,1,2.916-.023c.825.047.684,1.317-.133,1.27a10.285,10.285,0,0,0-2.584.015C477.353,282.975,477.16,281.712,477.966,281.555Z" transform="translate(-206.949 -277.865)" fill="#384c48"/>
      <path id="Path_3341" data-name="Path 3341" d="M453.29,289.593a7.842,7.842,0,0,0,2.041,1.324.639.639,0,0,1-.465,1.189,8.982,8.982,0,0,1-2.34-1.49C451.894,290.091,452.654,289.064,453.29,289.593Z" transform="translate(-174.141 -283.608)" fill="#384c48"/>
      <path id="Path_3342" data-name="Path 3342" d="M435.4,301.02c.068.027.137.054.206.077a1.239,1.239,0,0,1,.136.043,1.3,1.3,0,0,0,.183.024c-.043-.013.171-.053.031,0a.638.638,0,0,1,.511,1.169,2.091,2.091,0,0,1-1.533-.125.639.639,0,0,1,.465-1.19Z" transform="translate(-150.258 -291.889)" fill="#384c48"/>
      <path id="Path_3343" data-name="Path 3343" d="M506.6,286.429a.64.64,0,0,1,.9.106.652.652,0,0,1-.106.9,3.6,3.6,0,0,0-.691,1.3.639.639,0,0,1-1.189-.465A4.954,4.954,0,0,1,506.6,286.429Z" transform="translate(-241.035 -281.341)" fill="#384c48"/>
      <path id="Path_3344" data-name="Path 3344" d="M507.089,301.181c.477-.671,1.5.094,1.022.766a12.975,12.975,0,0,0-1.511,2.517.639.639,0,0,1-1.189-.466A14.467,14.467,0,0,1,507.089,301.181Z" transform="translate(-241.615 -291.849)" fill="#1a2624"/>
      <path id="Path_3345" data-name="Path 3345" d="M465.98,291.084a.652.652,0,0,1,.9.106,3.442,3.442,0,0,0,1.3.691.639.639,0,0,1-.466,1.189,4.771,4.771,0,0,1-1.84-1.089A.642.642,0,0,1,465.98,291.084Z" transform="translate(-190.785 -284.688)" fill="#1a2624"/>
      <path id="Path_3346" data-name="Path 3346" d="M449.135,305.326a3.452,3.452,0,0,0,1.426.379.65.65,0,0,1,.729.532.64.64,0,0,1-.532.73,4.771,4.771,0,0,1-2.089-.451A.639.639,0,0,1,449.135,305.326Z" transform="translate(-168.588 -294.977)" fill="#1a2624"/>
      <path id="Path_3347" data-name="Path 3347" d="M443.976,282.073a5.117,5.117,0,0,0,1.591.374c.824.052.686,1.323-.133,1.27a6.3,6.3,0,0,1-1.924-.455A.639.639,0,0,1,443.976,282.073Z" transform="translate(-161.956 -278.278)" fill="#1a2624"/>
      <path id="Path_3348" data-name="Path 3348" d="M437.663,291.2a2.143,2.143,0,0,0,1.264-.356.639.639,0,0,1,.792,1,3.18,3.18,0,0,1-1.859.614.649.649,0,0,1-.729-.531A.641.641,0,0,1,437.663,291.2Z" transform="translate(-154.105 -284.513)" fill="#1a2624"/>
      <path id="Path_3349" data-name="Path 3349" d="M479.521,272.937a4.519,4.519,0,0,1,1.944.12c.778.274.308,1.462-.466,1.189a3.025,3.025,0,0,0-1.279-.047.649.649,0,0,1-.731-.532A.642.642,0,0,1,479.521,272.937Z" transform="translate(-207.809 -271.718)" fill="#1a2624"/>
      <path id="Path_3350" data-name="Path 3350" d="M508.07,280.26l.034-.017.013-.01.049-.054c.014-.025.028-.054.034-.067.017-.04.032-.079.047-.119a.639.639,0,0,1,1.189.466,1.667,1.667,0,0,1-.855.972.639.639,0,0,1-.511-1.17Z" transform="translate(-243.517 -276.528)" fill="#1a2624"/>
      <path id="Path_3351" data-name="Path 3351" d="M446.389,293.751a4.152,4.152,0,0,1,1.847-.144c.122,0,.242.011.359.021a6.273,6.273,0,0,1,4.724,2.521c1.958,2.473,4.617,3.261,7.633,3.651.231.03-.854,1.533-1.119,1.68a4.282,4.282,0,0,1-2.7.066c-3.006-.669-4.62-2.346-6.038-4.812-1.288-2.238-4.156-2.18-6.265-1.5C445.149,295.127,445.757,293.989,446.389,293.751Z" transform="translate(-177.304 -286.572)" fill="#dc7a60"/>
      <g id="Group_2493" data-name="Group 2493" transform="translate(261.981 6.368)">
        <path id="Path_3352" data-name="Path 3352" d="M428.733,295.519a8.07,8.07,0,0,1,1.482-3.217c1.487-1.7,5.756-.928,7.337.4,1.138.956,1.917,2.037,3.289,2.7a14.5,14.5,0,0,0,5.774,1.466,9.822,9.822,0,0,0,5.46-1.365c-1.678,5-10.466,3.438-13.318.469-.7-.727-.7-1.847-1.491-2.563a5.6,5.6,0,0,0-3.4-1.019,3.685,3.685,0,0,0-1.752.2,2.009,2.009,0,0,0-1.1,1.241,63.688,63.688,0,0,0-3.756,10.529c-2.111-.785-.88-2.2-1.106-3.77-.121-.851-.946-.96-1.249-1.633-.535-1.193.128-3.667.39-4.892C425.93,294.818,428.027,297.864,428.733,295.519Z" transform="translate(-424.701 -291.327)" fill="#20312e"/>
      </g>
      <g id="Group_2494" data-name="Group 2494" transform="translate(253.539 42.56)">
        <path id="Path_3353" data-name="Path 3353" d="M551.686,419.723c.009.013.016.024.021.03C551.7,419.76,551.689,419.747,551.686,419.723Z" transform="translate(-551.686 -419.723)" fill="#7db1c1"/>
      </g>
      <g id="Group_2495" data-name="Group 2495" transform="translate(253.56 42.378)">
        <path id="Path_3354" data-name="Path 3354" d="M551.634,419.076l-.021.212s0-.081,0-.186A.054.054,0,0,1,551.634,419.076Z" transform="translate(-551.612 -419.076)" fill="#7db1c1"/>
      </g>
      <g id="Group_2497" data-name="Group 2497" transform="translate(332.89 221.464)">
        <g id="Group_2496" data-name="Group 2496" transform="translate(0)">
          <path id="Path_3355" data-name="Path 3355" d="M265.6,1054.555a.49.49,0,1,1,.694.693c-.1.1-.2.2-.288.3a.019.019,0,0,0-.006.007s-.034.044-.042.059a1.6,1.6,0,0,0-.111.189.494.494,0,0,1-.672.177.5.5,0,0,1-.176-.672A3.1,3.1,0,0,1,265.6,1054.555Z" transform="translate(-264.939 -1054.413)" fill="#e4d3d2"/>
        </g>
      </g>
      <g id="Group_2498" data-name="Group 2498" transform="translate(237.29 41.196)">
        <path id="Path_3356" data-name="Path 3356" d="M598.881,414.884h1.383a.922.922,0,1,1,0,1.845h-1.383a.922.922,0,1,1,0-1.845Z" transform="translate(-597.959 -414.884)" fill="#f1bc1d"/>
      </g>
      <g id="Group_2499" data-name="Group 2499" transform="translate(227.638 41.196)">
        <path id="Path_3357" data-name="Path 3357" d="M631.26,414.884a5.632,5.632,0,0,1,2.4.4.925.925,0,0,1,.33,1.262.94.94,0,0,1-1.261.331,3.967,3.967,0,0,0-1.471-.149A.923.923,0,0,1,631.26,414.884Z" transform="translate(-630.368 -414.884)" fill="#f1bc1d"/>
      </g>
      <g id="Group_2500" data-name="Group 2500" transform="translate(276.575 48.941)">
        <path id="Path_3358" data-name="Path 3358" d="M459.054,443.04a4.225,4.225,0,0,1,1.849-.679.922.922,0,1,1,0,1.845h-.069c-.009,0-.023,0-.037.009-.039.01-.077.023-.114.036-.012,0-.023.012-.041.021-.223.112-.435.248-.656.361a.938.938,0,0,1-1.262-.331A.927.927,0,0,1,459.054,443.04Z" transform="translate(-458.601 -442.361)" fill="#f1bc1d"/>
      </g>
      <g id="Group_2501" data-name="Group 2501" transform="translate(234.554 47.558)">
        <path id="Path_3359" data-name="Path 3359" d="M606.812,437.455h1.936a.923.923,0,0,1,0,1.845h-1.936A.923.923,0,0,1,606.812,437.455Z" transform="translate(-605.92 -437.455)" fill="#f1bc1d"/>
      </g>
      <g id="Group_2502" data-name="Group 2502" transform="translate(274.359 56.133)">
        <path id="Path_3360" data-name="Path 3360" d="M466.4,467.876h1.659a.923.923,0,0,1,0,1.845H466.4a.923.923,0,0,1,0-1.845Z" transform="translate(-465.474 -467.876)" fill="#f1bc1d"/>
      </g>
      <g id="Group_2503" data-name="Group 2503" transform="translate(232.063 56.147)">
        <path id="Path_3361" data-name="Path 3361" d="M615.556,468.188a3.8,3.8,0,0,0,1.472-.152.941.941,0,0,1,1.262.331.928.928,0,0,1-.33,1.263,5.426,5.426,0,0,1-2.4.4A.922.922,0,0,1,615.556,468.188Z" transform="translate(-614.664 -467.924)" fill="#f1bc1d"/>
      </g>
      <g id="Group_2504" data-name="Group 2504" transform="translate(271.622 63.049)">
        <path id="Path_3362" data-name="Path 3362" d="M472.357,492.412h2.767a.922.922,0,0,1,0,1.843h-2.767A.922.922,0,0,1,472.357,492.412Z" transform="translate(-471.466 -492.412)" fill="#f1bc1d"/>
      </g>
      <g id="Group_2505" data-name="Group 2505" transform="translate(231.788 62.772)">
        <path id="Path_3363" data-name="Path 3363" d="M615.643,491.428h2.213a.923.923,0,0,1,0,1.845h-2.213A.923.923,0,0,1,615.643,491.428Z" transform="translate(-614.751 -491.428)" fill="#f1bc1d"/>
      </g>
      <g id="Group_2506" data-name="Group 2506" transform="translate(266.642 72.471)">
        <path id="Path_3364" data-name="Path 3364" d="M491.9,526.1a4.454,4.454,0,0,0,1.747-.15.942.942,0,0,1,1.263.33.925.925,0,0,1-.331,1.262,6.308,6.308,0,0,1-2.679.4A.923.923,0,0,1,491.9,526.1Z" transform="translate(-491.009 -525.835)" fill="#f1bc1d"/>
      </g>
      <g id="Group_2507" data-name="Group 2507" transform="translate(228.161 72.454)">
        <path id="Path_3365" data-name="Path 3365" d="M630.287,525.776h1.659a.923.923,0,1,1,0,1.845h-1.659a.923.923,0,0,1,0-1.845Z" transform="translate(-629.365 -525.776)" fill="#f1bc1d"/>
      </g>
      <g id="Group_2508" data-name="Group 2508" transform="translate(276.301 87.953)">
        <path id="Path_3366" data-name="Path 3366" d="M459.508,580.762h1.66a.923.923,0,0,1,0,1.845h-1.66a.923.923,0,0,1,0-1.845Z" transform="translate(-458.587 -580.762)" fill="#f1bc1d"/>
      </g>
      <g id="Group_2509" data-name="Group 2509" transform="translate(235.639 86.017)">
        <path id="Path_3367" data-name="Path 3367" d="M607.543,573.894a.922.922,0,0,1,0,1.845c-.053,0-.1,0-.155,0a.136.136,0,0,0-.027.008.922.922,0,0,1-1.3-1.308A2.029,2.029,0,0,1,607.543,573.894Z" transform="translate(-605.793 -573.894)" fill="#f1bc1d"/>
      </g>
      <g id="Group_2510" data-name="Group 2510" transform="translate(281.589 95.133)">
        <path id="Path_3368" data-name="Path 3368" d="M438.148,606.282a2.994,2.994,0,0,0,1.779.094.941.941,0,0,1,1.262.331.925.925,0,0,1-.33,1.261,4.6,4.6,0,0,1-3.2.092C436.524,607.71,437.009,605.929,438.148,606.282Z" transform="translate(-437.012 -606.236)" fill="#f1bc1d"/>
      </g>
      <g id="Group_2511" data-name="Group 2511" transform="translate(267.189 94.32)">
        <path id="Path_3369" data-name="Path 3369" d="M487.319,603.379a11.88,11.88,0,0,0,2.8.245.922.922,0,0,1,0,1.842,14.127,14.127,0,0,1-3.288-.308C485.672,604.882,486.161,603.1,487.319,603.379Z" transform="translate(-486.168 -603.35)" fill="#f1bc1d"/>
      </g>
      <g id="Group_2512" data-name="Group 2512" transform="translate(284.046 100.401)">
        <path id="Path_3370" data-name="Path 3370" d="M433.008,624.924a3.213,3.213,0,0,1,.828.135c.1.03.2.066.294.1.051.015.1.028.156.039a.108.108,0,0,0,.024.006c.016,0,.04,0,.082,0a.922.922,0,0,1,0,1.843,3.023,3.023,0,0,1-.826-.135c-.1-.03-.2-.065-.3-.1-.051-.014-.1-.029-.155-.038l-.024-.007a.746.746,0,0,1-.083,0,.922.922,0,0,1,0-1.845Z" transform="translate(-432.087 -624.924)" fill="#f1bc1d"/>
      </g>
      <g id="Group_2513" data-name="Group 2513" transform="translate(274.642 100.126)">
        <path id="Path_3371" data-name="Path 3371" d="M465.394,623.949h1.659a.923.923,0,0,1,0,1.845h-1.659a.923.923,0,0,1,0-1.845Z" transform="translate(-464.473 -623.949)" fill="#f1bc1d"/>
      </g>
      <g id="Group_2514" data-name="Group 2514" transform="translate(298.154 166.517)">
        <path id="Path_3372" data-name="Path 3372" d="M382.954,859.481h1.384a.922.922,0,1,1,0,1.845h-1.384a.922.922,0,0,1,0-1.845Z" transform="translate(-382.033 -859.481)" fill="#ee9724"/>
      </g>
      <g id="Group_2515" data-name="Group 2515" transform="translate(286.839 166.5)">
        <path id="Path_3373" data-name="Path 3373" d="M418.634,859.748a3.975,3.975,0,0,0,2.277-.278c1.134-.369,1.616,1.412.489,1.778a5.592,5.592,0,0,1-3.256.278A.922.922,0,0,1,418.634,859.748Z" transform="translate(-417.493 -859.419)" fill="#ee9724"/>
      </g>
      <g id="Group_2516" data-name="Group 2516" transform="translate(336.604 159.98)">
        <path id="Path_3374" data-name="Path 3374" d="M245.568,836.288h1.66a.923.923,0,0,1,0,1.846h-1.66a.923.923,0,0,1,0-1.846Z" transform="translate(-244.646 -836.288)" fill="#ee9724"/>
      </g>
      <g id="Group_2517" data-name="Group 2517" transform="translate(314.782 158.495)">
        <path id="Path_3375" data-name="Path 3375" d="M321.2,831.02h2.214a.923.923,0,0,1,0,1.844H321.2A.923.923,0,0,1,321.2,831.02Z" transform="translate(-320.31 -831.02)" fill="#ee9724"/>
      </g>
      <g id="Group_2518" data-name="Group 2518" transform="translate(303.134 159.047)">
        <path id="Path_3376" data-name="Path 3376" d="M366.269,832.98h1.106a.923.923,0,1,1,0,1.846h-1.106a.923.923,0,0,1,0-1.846Z" transform="translate(-365.347 -832.98)" fill="#ee9724"/>
      </g>
      <g id="Group_2519" data-name="Group 2519" transform="translate(289.558 159.079)">
        <path id="Path_3377" data-name="Path 3377" d="M407.1,833.188a6.6,6.6,0,0,0,2.855.427.923.923,0,0,1,0,1.845,8.662,8.662,0,0,1-3.785-.68C405.092,834.279,406.029,832.689,407.1,833.188Z" transform="translate(-405.692 -833.092)" fill="#ee9724"/>
      </g>
      <g id="Group_2520" data-name="Group 2520" transform="translate(275.223 159.325)">
        <path id="Path_3378" data-name="Path 3378" d="M458.6,833.964h3.044a.923.923,0,0,1,0,1.845H458.6A.923.923,0,0,1,458.6,833.964Z" transform="translate(-457.708 -833.964)" fill="#ee9724"/>
      </g>
      <g id="Group_2522" data-name="Group 2522" transform="translate(281.323 122.388)">
        <g id="Group_2521" data-name="Group 2521" transform="translate(0)">
          <path id="Path_3379" data-name="Path 3379" d="M445.109,703.79c-.537.123-1.073.243-1.614.363.915-.361,1.827-.774,2.734-1.228Z" transform="translate(-443.495 -702.924)" fill="#dddbe4"/>
        </g>
      </g>
      <g id="Group_2523" data-name="Group 2523" transform="translate(326.354 224.182)">
        <path id="Path_3380" data-name="Path 3380" d="M269.763,1064.056c1.734,1.7,4.5,3.513,6.553,3.722a29.017,29.017,0,0,1-.7,4.651c-1.472-.57-3.68-1.209-4.8-2.511-1.074-1.246-1.155-3.789-1.221-5.512a.65.65,0,0,0,.112-.2C269.725,1064.159,269.745,1064.109,269.763,1064.056Z" transform="translate(-269.594 -1064.056)" fill="#004560"/>
      </g>
      <g id="Group_2524" data-name="Group 2524" transform="translate(334.061 229.284)">
        <path id="Path_3381" data-name="Path 3381" d="M231.689,1084.41c2.63,1.821-1.233,3.686-2.995,3.848a14.95,14.95,0,0,1-6.116-1.131c-2.806-.987-3.143-1.962-3.156-4.789l1.35-.179C223.242,1084.644,228.423,1086.7,231.689,1084.41Z" transform="translate(-219.423 -1082.158)" fill="#004560"/>
      </g>
      <g id="Group_2525" data-name="Group 2525" transform="translate(325.589 217.26)">
        <path id="Path_3382" data-name="Path 3382" d="M218.774,1039.787a.623.623,0,0,0,.264.1c2.059,2.81,8.947,4.683,11.366,3.267,1.08,2.306,3.592,5.665,5.871,6.934,1.955,1.09,4.6,2.419,3.907,4.5-.689,2.062-7.348.678-9.239-.039a44.4,44.4,0,0,1-9.519-4.684c-2.767-1.874-3.142-6.953-3.04-10.365A4.086,4.086,0,0,0,218.774,1039.787Z" transform="translate(-218.369 -1039.501)" fill="#111a21"/>
      </g>
      <g id="Group_2527" data-name="Group 2527" transform="translate(319.972 152.412)">
        <g id="Group_2526" data-name="Group 2526" transform="translate(0)">
          <path id="Path_3383" data-name="Path 3383" d="M229.931,813.6a30.284,30.284,0,0,1,6.161-2.924,19.14,19.14,0,0,1,7.263-1.2c6.158.434,5.62,8.817,5.4,13.635-.558,12.456-3.871,49.443-6.032,54.937a21.414,21.414,0,0,1-8.871,1.421c-3.13-.161-4.234-.217-7.032-1.64-1.891-3.8-2.048-8.924-2.574-14.124-.927-9.148-2.509-18.875-1.344-27.92C223.783,828.972,223.407,817.7,229.931,813.6Z" transform="translate(-222.494 -809.44)" fill="#005468"/>
        </g>
      </g>
      <g id="Group_2529" data-name="Group 2529" transform="translate(261.678 110.441)">
        <g id="Group_2528" data-name="Group 2528">
          <path id="Path_3384" data-name="Path 3384" d="M233.744,666.414c1.6-1.391,2.379-4.5,4.231-5.443a4.277,4.277,0,0,1,.625-.256c2.631-.825,5.04,1.513,7.3,2.75q9.01,4.935,17.957,9.978c11.985,6.773,24.335,13.45,35.44,21.63,3.916,2.886,7.618,6.278,8.68,11.237s-.4,10.347-6.36,10.121c-2.636-.1-4.666,2.616-7.255,2.8-4.543.331-7.282-2.038-11.174-3.922-5.82-2.819-10.834-3.65-16.985-5.193-13.254-3.326-33.156-11.055-40.24-23.649C220.848,677.374,226.978,672.3,233.744,666.414Z" transform="translate(-224.068 -660.542)" fill="#005468"/>
        </g>
      </g>
      <path id="Path_3385" data-name="Path 3385" d="M529.462,762.066l22.59,30.353c-9.648-.658-18.918-4.5-27.657-7.25-7.825-2.46-18.425-7.3-19.359-16.658C503.664,754.766,521.545,757.933,529.462,762.066Z" transform="translate(-285.32 -620.466)" fill="#71b087"/>
      <g id="Group_2531" data-name="Group 2531" transform="translate(221.757 116.524)">
        <g id="Group_2530" data-name="Group 2530" transform="translate(0)">
          <path id="Path_3386" data-name="Path 3386" d="M370.439,685.77c4.571-1.123,8.455-2.753,13.081-2.592.142.005.284.008.428.008,4.043.014,8.61-1.641,12.479-.849,3.57.728,2.963,1.788,3.722,5.326,2.708,12.64,15.8,21.537,25.328,28.641,4.73,3.524,10.191,6.374,14.179,10.917a12.016,12.016,0,0,1,2.808,7.633c-.058,4.406-8.4,12.843-12.612,13.982-6.447,1.742-16.422-5.984-22.508-8.572-8.585-3.651-16.9-7.885-25.666-11.051-7.763-2.8-16.335-6.086-21.929-12.446C350.25,705.97,356.992,689.074,370.439,685.77Z" transform="translate(-355.306 -682.123)" fill="#005468"/>
        </g>
      </g>
      <g id="Group_2533" data-name="Group 2533" transform="translate(303.778 245.607)">
        <g id="Group_2532" data-name="Group 2532" transform="translate(0)">
          <path id="Path_3387" data-name="Path 3387" d="M366.812,1140.538a9.007,9.007,0,0,1,1.1-.451.5.5,0,0,1,.6.349.509.509,0,0,1-.343.615,6.705,6.705,0,0,0-.865.35.5.5,0,0,1-.671-.18A.509.509,0,0,1,366.812,1140.538Z" transform="translate(-366.572 -1140.066)" fill="#e4d3d2"/>
        </g>
      </g>
      <g id="Group_2535" data-name="Group 2535" transform="translate(296.611 245.42)">
        <g id="Group_2534" data-name="Group 2534" transform="translate(0)">
          <path id="Path_3388" data-name="Path 3388" d="M393.542,1139.494c.092,0,.185,0,.277-.008.018,0,.037,0,.054-.005l.03,0c.027,0,.187-.066.077-.015a.5.5,0,0,1,.671.179.506.506,0,0,1-.176.684,2.146,2.146,0,0,1-.934.168.5.5,0,0,1,0-1Z" transform="translate(-393.051 -1139.402)" fill="#e4d3d2"/>
        </g>
      </g>
      <g id="Group_2539" data-name="Group 2539" transform="translate(293.118 238.966)">
        <g id="Group_2536" data-name="Group 2536" transform="translate(0.711 8.659)">
          <path id="Path_3389" data-name="Path 3389" d="M385.452,1147.222c1.7,1.754,4.425,3.638,6.463,3.895a29.43,29.43,0,0,1-.789,4.688c-1.456-.606-3.646-1.3-4.738-2.635-1.046-1.282-1.078-3.856-1.111-5.6a.641.641,0,0,0,.115-.2C385.413,1147.323,385.433,1147.272,385.452,1147.222Z" transform="translate(-385.278 -1147.222)" fill="#2d6788"/>
        </g>
        <g id="Group_2537" data-name="Group 2537" transform="translate(8.589 13.759)">
          <path id="Path_3390" data-name="Path 3390" d="M335.907,1165.318c2.413,2.563,7.54,4.749,10.842,2.492,2.586,1.892-1.3,3.7-3.061,3.831a14.758,14.758,0,0,1-6.078-1.262c-2.778-1.055-3.1-2.047-3.053-4.908Z" transform="translate(-334.554 -1165.318)" fill="#2d6788"/>
        </g>
        <g id="Group_2538" data-name="Group 2538" transform="translate(0)">
          <path id="Path_3391" data-name="Path 3391" d="M346.627,1121.821c1.032,2.356,3.474,5.8,5.722,7.129,1.931,1.143,4.542,2.538,3.81,4.633-.725,2.071-7.34.541-9.213-.22a44.122,44.122,0,0,1-9.4-4.922c-3.123-2.237-3.028-8.671-2.739-11.937C334.479,1120.244,343.705,1123.483,346.627,1121.821Z" transform="translate(-334.671 -1116.504)" fill="#111a21"/>
        </g>
      </g>
      <g id="Group_2541" data-name="Group 2541" transform="translate(288.338 162.403)">
        <g id="Group_2540" data-name="Group 2540" transform="translate(0)">
          <path id="Path_3392" data-name="Path 3392" d="M331.02,853.421c3.207-8.77,9.182-10.613,16.533-6.3,4.325,2.533,5.081,4.994,5.138,9.982.007.515.01,1.031,0,1.547-.062,12.082-2.44,24.12-4.365,35.972-1.423,8.76-6.056,34.422-6.4,34.663-3.857.563-8.394-.527-11.528-1.756a27.056,27.056,0,0,1-3.6-1.7,26.415,26.415,0,0,1-.7-2.624c-2.655-12.179-4.036-27.486-2.345-39.518A152.586,152.586,0,0,1,331.02,853.421Z" transform="translate(-323.02 -844.886)" fill="#005468"/>
        </g>
      </g>
      <g id="Group_2542" data-name="Group 2542" transform="translate(289.28 168.945)">
        <path id="Path_3393" data-name="Path 3393" d="M417.5,868.1a1.235,1.235,0,0,1,1.224,1.224v1.632a1.224,1.224,0,0,1-2.449,0v-1.632A1.236,1.236,0,0,1,417.5,868.1Z" transform="translate(-416.279 -868.095)" fill="#fff"/>
      </g>
      <g id="Group_2545" data-name="Group 2545" transform="translate(283.734 162.425)">
        <g id="Group_2543" data-name="Group 2543" transform="translate(0)">
          <path id="Path_3394" data-name="Path 3394" d="M433.177,845.118c.235.12.461.255.686.4l.181.1c-.039,0-.1-.01-.179-.014a1.557,1.557,0,0,1,.163.022.217.217,0,0,1-.027-.011.583.583,0,0,0,.068.017h0a1.219,1.219,0,0,1-.206,2.422,4.778,4.778,0,0,1-1.925-.821,1.231,1.231,0,0,1-.438-1.675A1.244,1.244,0,0,1,433.177,845.118Z" transform="translate(-431.34 -844.964)" fill="#fff"/>
        </g>
        <g id="Group_2544" data-name="Group 2544" transform="translate(2.704 0.654)">
          <path id="Path_3395" data-name="Path 3395" d="M434.8,847.3a.1.1,0,0,0-.025-.015C434.888,847.3,434.861,847.307,434.8,847.3Z" transform="translate(-434.776 -847.284)" fill="#fff"/>
        </g>
      </g>
      <g id="Group_2546" data-name="Group 2546" transform="translate(273.61 158.51)">
        <path id="Path_3396" data-name="Path 3396" d="M465.615,831.224a5.24,5.24,0,0,0,.779.3c.187.06.378.106.57.151.068.012.106.016.124.021.065,0,.13.01.2.01a1.225,1.225,0,0,1,0,2.451,7.248,7.248,0,0,1-2.906-.819,1.232,1.232,0,0,1-.439-1.677A1.249,1.249,0,0,1,465.615,831.224Z" transform="translate(-463.779 -831.074)" fill="#fff"/>
      </g>
      <g id="Group_2547" data-name="Group 2547" transform="translate(261.852 153.274)">
        <path id="Path_3397" data-name="Path 3397" d="M509.892,812.853c.025.027.179.156.226.205.057.03.124.061.165.082.124.008.251.007.376.007a1.224,1.224,0,1,1,0,2.448,3.822,3.822,0,0,1-1.143-.126,3.392,3.392,0,0,1-1.357-.885,1.225,1.225,0,0,1,1.733-1.731Z" transform="translate(-507.805 -812.5)" fill="#fff"/>
      </g>
      <g id="Group_2548" data-name="Group 2548" transform="translate(302.673 150.009)">
        <path id="Path_3398" data-name="Path 3398" d="M363.912,801.267c.059.058.086.085.1.1s.041.024.089.055a.74.74,0,0,1,.106.057c.048.015.1.034.147.046s.088.016.1.019a.923.923,0,0,0,.121.011c.144.008.289.008.434.008a1.225,1.225,0,0,1,0,2.449A3.846,3.846,0,0,1,362.181,803a1.225,1.225,0,0,1,1.732-1.733Z" transform="translate(-361.825 -800.915)" fill="#fff"/>
      </g>
      <g id="Group_2550" data-name="Group 2550" transform="translate(256.072 141.604)">
        <g id="Group_2549" data-name="Group 2549" transform="translate(0)">
          <path id="Path_3399" data-name="Path 3399" d="M402.444,771.1c-.15,4.208,3.192,5.071,5.816,8.2,1.739,2.076,3.756,3.866,5.68,5.831,5.49,5.613,16.743,12.166,24.794,10.932,2.559,5.415-3.071,6.83-5.768,6.14-4.474-1.142-27.539-15.859-30.327-18.27-2.144-1.853-4.333-4.5-3.739-7.106C399.569,773.884,400.6,773.374,402.444,771.1Z" transform="translate(-398.801 -771.097)" fill="#e2dcd4"/>
        </g>
      </g>
      <g id="Group_2552" data-name="Group 2552" transform="translate(256.718 114.869)">
        <g id="Group_2551" data-name="Group 2551" transform="translate(0)">
          <path id="Path_3400" data-name="Path 3400" d="M272.906,697.949c9.241-5.307,17.668-11.693,26.345-17.931,9.082-6.532,11.755-3.178,18.036-.306,9.229,4.22,24.755,13.484,24.917,14.864.685,5.8-4.6,7.924-8.457,10.354-4.047,2.551-7.291,6.091-11.269,8.678-4.2,2.729-8.508,5.136-12.612,7.956-3.054,2.1-6.292,5.291-9.591,6.851-3.1,1.468-7.056-.233-9.861-1.87-5.966-3.484-16.02-9.173-21.7-13.182C260.974,707.905,264.646,702.693,272.906,697.949Z" transform="translate(-264.459 -676.25)" fill="#fff"/>
        </g>
      </g>
      <g id="Group_2554" data-name="Group 2554" transform="translate(269.639 119.387)">
        <g id="Group_2553" data-name="Group 2553" transform="translate(0)">
          <path id="Path_3401" data-name="Path 3401" d="M293.857,711.151c5.275-3.773,10.2-8,15.513-11.731a53.379,53.379,0,0,1,7.6-4.935c5.635-2.64,8.884-1.346,15.1-2.028,4.9-.537,10.11-.2,11.954,5.789,2.1,6.825-.858,11.25-5.618,14.982-4.906,3.845-10.063,7.016-14.988,10.693l-.079.061c-2.169,1.622-4.2,3.434-6.23,5.22-.912.8-1.969,1.533-2.841,2.352-1.046.981-1.743,2.208-3.013,2.973-2.047,1.235-4.42-.393-6.2-1.4-3.978-2.269-7.988-4.41-11.884-6.905-3.089-1.977-9.714-4.051-6.423-8.868C288.517,714.766,291.351,712.944,293.857,711.151Z" transform="translate(-285.857 -692.279)" fill="#1d3b5c"/>
        </g>
      </g>
      <g id="Group_2556" data-name="Group 2556" transform="translate(298.652 134.202)">
        <g id="Group_2555" data-name="Group 2555" transform="translate(0)">
          <path id="Path_3402" data-name="Path 3402" d="M388.742,745.119a.581.581,0,0,0,.567.2,3.126,3.126,0,0,1-.16.742c-.037.108-.449-.576-.785-1.192a.8.8,0,0,0,.155-.031C388.592,744.933,388.666,745.028,388.742,745.119Z" transform="translate(-388.365 -744.839)" fill="#ea4939"/>
        </g>
      </g>
      <g id="Group_2558" data-name="Group 2558" transform="translate(271.278 143.296)">
        <g id="Group_2557" data-name="Group 2557" transform="translate(0)">
          <path id="Path_3403" data-name="Path 3403" d="M434.861,777.141c1.779,1.369,5.263,3.475,8.635,5.511,2.411,1.459,4.692,2.836,6.259,3.889a.2.2,0,0,1,.055.277.2.2,0,0,1-.166.087.2.2,0,0,1-.111-.034c-1.559-1.049-3.835-2.42-6.244-3.878-3.38-2.044-6.875-4.156-8.672-5.537a.2.2,0,0,1,.244-.316Z" transform="translate(-434.539 -777.099)" fill="#fff"/>
        </g>
      </g>
      <g id="Group_2560" data-name="Group 2560" transform="translate(271.24 142.036)">
        <g id="Group_2559" data-name="Group 2559" transform="translate(0)">
          <path id="Path_3404" data-name="Path 3404" d="M469.92,772.691a.207.207,0,0,1,.306.011.242.242,0,0,1-.014.327c-1.1,1.086-6.678,5.733-6.915,5.931a.206.206,0,0,1-.161.049.214.214,0,0,1-.142-.086.24.24,0,0,1,.042-.324C463.093,778.548,468.838,773.764,469.92,772.691Z" transform="translate(-462.949 -772.629)" fill="#fff"/>
        </g>
      </g>
      <g id="Group_2562" data-name="Group 2562" transform="translate(274.288 144.047)">
        <g id="Group_2561" data-name="Group 2561" transform="translate(0)">
          <path id="Path_3405" data-name="Path 3405" d="M451.988,783.313c1.087-.9,2.439-2.028,4.159-3.493a.212.212,0,0,1,.318.038.258.258,0,0,1-.042.343c-1.72,1.468-3.074,2.594-4.162,3.5-1.673,1.391-2.779,2.309-3.869,3.346a.208.208,0,0,1-.176.062.213.213,0,0,1-.143-.08.259.259,0,0,1,.022-.346C449.2,785.632,450.308,784.709,451.988,783.313Z" transform="translate(-448.017 -779.765)" fill="#fff"/>
        </g>
      </g>
      <g id="Group_2564" data-name="Group 2564" transform="translate(278.876 147.291)">
        <g id="Group_2563" data-name="Group 2563" transform="translate(0)">
          <path id="Path_3406" data-name="Path 3406" d="M439.969,795.4c1.234-1.255,2.633-2.677,4.079-4.075a.2.2,0,1,1,.276.287c-1.442,1.395-2.839,2.815-4.071,4.069-.964.978-1.794,1.823-2.4,2.4a.2.2,0,0,1-.143.055.2.2,0,0,1-.139-.061.2.2,0,0,1,.006-.282C438.179,797.226,439.007,796.383,439.969,795.4Z" transform="translate(-437.52 -791.274)" fill="#fff"/>
        </g>
      </g>
      <g id="Group_2566" data-name="Group 2566" transform="translate(278.711 135.306)">
        <g id="Group_2565" data-name="Group 2565" transform="translate(0)">
          <path id="Path_3407" data-name="Path 3407" d="M443.175,748.823a.226.226,0,0,1,.324,0,.238.238,0,0,1,0,.331c-1.1,1.14-6.734,6.051-6.975,6.26a.216.216,0,0,1-.169.053.221.221,0,0,1-.153-.078.239.239,0,0,1,.025-.331C436.288,755.006,442.089,749.95,443.175,748.823Z" transform="translate(-436.15 -748.755)" fill="#fff"/>
        </g>
      </g>
      <g id="Group_2568" data-name="Group 2568" transform="translate(274.281 139.685)">
        <g id="Group_2567" data-name="Group 2567" transform="translate(0)">
          <path id="Path_3408" data-name="Path 3408" d="M437.113,764.291c1.824,1.3,4.253,2.876,6.628,4.419,1.693,1.1,3.318,2.158,4.668,3.076-.033.138-.065.276-.1.413-1.37-.934-3.043-2.02-4.786-3.154-2.446-1.589-4.949-3.215-6.8-4.541l.181-.1C436.977,764.372,437.046,764.331,437.113,764.291Z" transform="translate(-436.724 -764.291)" fill="#fff"/>
        </g>
      </g>
      <g id="Group_2570" data-name="Group 2570" transform="translate(279.128 136.969)">
        <g id="Group_2569" data-name="Group 2569" transform="translate(0)">
          <path id="Path_3409" data-name="Path 3409" d="M438.716,755.812c1.711,1.077,3.349,2.107,4.712,3-.029.138-.06.278-.092.415-1.383-.913-3.071-1.974-4.832-3.081-.655-.413-1.316-.827-1.966-1.238.116-.084.228-.171.336-.259C437.483,755.038,438.1,755.427,438.716,755.812Z" transform="translate(-436.538 -754.653)" fill="#fff"/>
        </g>
      </g>
      <g id="Group_2572" data-name="Group 2572" transform="translate(282.462 152.559)">
        <g id="Group_2571" data-name="Group 2571" transform="translate(0)">
          <path id="Path_3410" data-name="Path 3410" d="M439.583,810.128c.054-.053.113-.111.167-.166a2.576,2.576,0,0,0,.323.241c-.072.071-.141.141-.209.207-1.307,1.3-2.17,2.156-3.006,3.108a.2.2,0,0,1-.281.018.2.2,0,0,1-.018-.281C437.4,812.293,438.271,811.432,439.583,810.128Z" transform="translate(-436.509 -809.962)" fill="#fff"/>
        </g>
      </g>
      <g id="Group_2573" data-name="Group 2573" transform="translate(301.587 141.636)">
        <path id="Path_3411" data-name="Path 3411" d="M381.3,771.21a.178.178,0,0,1,0,.029C381.3,771.225,381.3,771.215,381.3,771.21Z" transform="translate(-381.298 -771.21)" fill="#edf6f8"/>
      </g>
      <g id="Group_2574" data-name="Group 2574" transform="translate(300.701 109.835)">
        <path id="Path_3412" data-name="Path 3412" d="M368.8,658.393h2.88a.922.922,0,0,1,0,1.843H368.8A.922.922,0,0,1,368.8,658.393Z" transform="translate(-367.91 -658.393)" fill="#f1bc1d"/>
      </g>
      <g id="Group_2575" data-name="Group 2575" transform="translate(264 47.614)">
        <path id="Path_3413" data-name="Path 3413" d="M354.217,441.619c4.071,5.212,5.02,13.044,6.08,19.428,2.63,15.841,8.859,27.756,18.752,40.2,3,3.768,8.066,5.969,7.043,10.654-1.752,8.024-11.5,10.453-17.98,8.695-6.757-1.833-14.334-6.589-18.351-12.606-7.963-11.924-10.062-27.165-12.805-41.037-1.07-5.413-1.9-13.719-.031-20.371C339.313,438.072,348.364,434.124,354.217,441.619Z" transform="translate(-335.818 -437.651)" fill="#ffb134"/>
      </g>
      <g id="Group_2576" data-name="Group 2576" transform="translate(213.135 33.039)">
        <path id="Path_3414" data-name="Path 3414" d="M461.884,407.834c1.782-5.478,2.114-11.948,5.9-16.577,2.581-3.155,6.458-3.8,10.3-4.06,5.227-.35,11.088-3.15,15.046.989,4.593,4.8,10.6,6.721,16.916,8.086,7.048,1.523,12.647,3.65,12.8,11.87.141,7.543-4.642,15.037-6.1,22.543-2.373,12.2-.392,19.4,4.143,30.466,3.864,9.43-3.934,13.969-12.276,15.864-9.194,2.089-17.941,6.105-27.293,8.108-7.66,1.64-16.754,3.481-20.6-5.1-4.885-10.908-7.036-24.219-4.245-35.885C459.348,432.13,458.018,419.718,461.884,407.834Z" transform="translate(-455.237 -385.947)" fill="#ffb134"/>
      </g>
      <g id="Group_2577" data-name="Group 2577" transform="translate(219.213 115.904)">
        <path id="Path_3415" data-name="Path 3415" d="M465.733,693.208a202.613,202.613,0,0,0,21.495-4.314c11.84-2.879,16.486-4.631,28.537-8.616.425-.14.87-.232,1.306-.343,1-.262,2.339,3.675,2.261,4.387a3.191,3.191,0,0,1-.232.9,5.793,5.793,0,0,1-2.368,2.423c-3.258,2.136-7.5,2.771-11.169,3.963-4.333,1.408-8.693,2.794-13.083,3.978a177.225,177.225,0,0,1-23.4,4.569c-2.989.382-6.913,1.746-8.927-.1-2.173-1.99-1.121-4.789-.861-7.321A16.621,16.621,0,0,0,465.733,693.208Z" transform="translate(-458.807 -679.923)" fill="#172534"/>
      </g>
      <g id="Group_2578" data-name="Group 2578" transform="translate(273.562 130.897)">
        <path id="Path_3416" data-name="Path 3416" d="M448.654,734.876a16.623,16.623,0,0,0,6.281-1.763,13.584,13.584,0,0,1-.889,3.43,6.683,6.683,0,0,1-3.384,1.864c-1.294.379-1.727.784-3.011.11-.886-.465-2.255-3.72-2.824-3.812A16.292,16.292,0,0,0,448.654,734.876Z" transform="translate(-444.828 -733.112)" fill="#c87565"/>
      </g>
      <g id="Group_2587" data-name="Group 2587" transform="translate(256.818 126.723)">
        <g id="Group_2579" data-name="Group 2579" transform="translate(0)">
          <path id="Path_3417" data-name="Path 3417" d="M422.287,726.818c1.419-1.22,2.181-2.933,3.118-4.515a19.805,19.805,0,0,1,1.421-1.944A8.5,8.5,0,0,0,428.1,718.3c1.925.323,3.156,1.882,4.646,3.029,4.479,3.446,10.368,7.168,15.753,8.942,1.168.386,3.828.659,4.628,1.722.867,1.152-.146,3.013-1.049,4.205-.174.231-.341.431-.494.6-1.6,1.795-4.869,2.782-7.188,3.075a21.354,21.354,0,0,1-11.109-1.743c-3.073-1.316-6.95-2.777-9.65-4.75-.762-.557-3.908-2.924-4.146-3.7C419.035,728.21,421.468,727.521,422.287,726.818Z" transform="translate(-419.434 -718.305)" fill="#c87565"/>
        </g>
        <g id="Group_2581" data-name="Group 2581" transform="translate(21.274 12.419)">
          <g id="Group_2580" data-name="Group 2580">
            <path id="Path_3418" data-name="Path 3418" d="M431.938,764.507l.03.151a4.812,4.812,0,0,0-.554,1.032,21.415,21.415,0,0,1-12.277-2.1l.612-1.231C424.478,764.545,428.464,765.248,431.938,764.507Z" transform="translate(-419.137 -762.363)" fill="#b56254"/>
          </g>
        </g>
        <g id="Group_2583" data-name="Group 2583" transform="translate(18.933 15.307)">
          <g id="Group_2582" data-name="Group 2582">
            <path id="Path_3419" data-name="Path 3419" d="M437.951,775.165a6.852,6.852,0,0,1-1.52,1.305c-3.617.493-7.4-.193-12.222-2.536l.693-1.325C429.895,775.035,434.43,775.946,437.951,775.165Z" transform="translate(-424.208 -772.609)" fill="#b56254"/>
          </g>
        </g>
        <g id="Group_2586" data-name="Group 2586" transform="translate(15.378 17.122)">
          <g id="Group_2584" data-name="Group 2584" transform="translate(0)">
            <path id="Path_3420" data-name="Path 3420" d="M441.639,779.048c-.13.216,4.609,2.425,5.08,2.554,3.054.846,6.208,1.194,6.79.976a7.249,7.249,0,0,1-3.836.853,13.181,13.181,0,0,1-2.8-.408c-.558-.142-6.146-2.427-5.948-2.764Z" transform="translate(-440.923 -779.048)" fill="#b56254"/>
          </g>
          <g id="Group_2585" data-name="Group 2585" transform="translate(12.586 3.477)">
            <path id="Path_3421" data-name="Path 3421" d="M440.624,791.435a.818.818,0,0,0,.084-.053A.191.191,0,0,1,440.624,791.435Z" transform="translate(-440.624 -791.382)" fill="#b56254"/>
          </g>
        </g>
      </g>
      <g id="Group_2588" data-name="Group 2588" transform="translate(201.097 34.877)">
        <path id="Path_3422" data-name="Path 3422" d="M536.866,392.713a11.874,11.874,0,0,1,6.524.475c9.816,3.64,6.354,20.668,5.8,28.386-.714,9.943-.147,20.081,3.452,29.473a84.783,84.783,0,0,0,6.009,12.985c3.58,6.059,6.4,12.233,12.622,15.931,2.515,1.495,4.792,3.8,2.43,6.559-14.95,17.451-40.827-.005-51.5-11.412-7.522-8.044-10.043-22.192-11.256-32.936-1.133-10.028,1.123-22.48,7.4-33.552C521.682,402.759,528.979,394.266,536.866,392.713Z" transform="translate(-510.671 -392.465)" fill="#ffb134"/>
      </g>
      <g id="Group_2590" data-name="Group 2590" transform="translate(249.293 122.063)">
        <g id="Group_2589" data-name="Group 2589" transform="translate(0)">
          <path id="Path_3423" data-name="Path 3423" d="M506.732,711.185c.3-.215.571-.428.816-.641,2.874-2.513,4.626-4.931,4.972-8.77,7.764,1.545,9.244,6.438,3.979,12.3-1.682,1.873-4.251,4.465-6.778,5.081-3,.731-5.746-1.129-8.646-2.212C501.312,714.4,504.574,712.749,506.732,711.185Z" transform="translate(-501.075 -701.774)" fill="#172534"/>
        </g>
      </g>
      <g id="Group_2592" data-name="Group 2592" transform="translate(285.831 100.741)">
        <g id="Group_2591" data-name="Group 2591" transform="translate(0)">
          <path id="Path_3424" data-name="Path 3424" d="M266.258,664.1c-.3-5.933,1.518-8.9,3.3-10.307,2.923-2.3,22.733-16.1,34.3-23.314,5.679-3.543,10.62-1.659,9.571,2.587-2.051.078-5.441.592-7.11,1.932-1.968,1.583-3.131,3.28-5.353,4.61-5.086,3.044-10.621,5.262-15.477,8.707-2.311,1.639-4.6,3.552-6.757,5.371a37.272,37.272,0,0,0-6.33,7.169c-2.223,3.461-1.563,8.9-1.717,12.876-.2,5.153-.493,10.3-.809,15.443-.13,2.1-.368,4.131.725,6.01.431.746,2.933,2.754,1.431,3.706a1.347,1.347,0,0,1-.979.19c-1.416-.235-3.681-3.25-4.045-4.208a22.027,22.027,0,0,1-1-7.672C266,681.112,266.427,667.528,266.258,664.1Z" transform="translate(-265.314 -627.921)" fill="#0d1b37"/>
          <path id="Path_3425" data-name="Path 3425" d="M263.8,662.35c-.319-6.431,1.766-9.475,3.571-10.895,3.11-2.449,22.993-16.268,34.359-23.359a11.642,11.642,0,0,1,6.016-1.965,4.851,4.851,0,0,1,3.98,1.677,4.144,4.144,0,0,1,.611,3.643l-.127.511-.52.021c-2.344.087-5.328.673-6.7,1.778a26.734,26.734,0,0,0-2,1.839,17.938,17.938,0,0,1-3.43,2.826c-2.062,1.233-4.222,2.346-6.311,3.423a75.041,75.041,0,0,0-9.123,5.255c-2.2,1.557-4.338,3.337-6.709,5.335a36.33,36.33,0,0,0-6.193,7.012c-1.623,2.527-1.6,6.338-1.582,9.7,0,.995.01,1.934-.023,2.822-.213,5.466-.529,10.881-.81,15.458l-.032.5c-.122,1.834-.235,3.567.663,5.112a5.823,5.823,0,0,0,.494.6c.731.829,1.639,1.858,1.491,2.9a1.6,1.6,0,0,1-.783,1.153,2.02,2.02,0,0,1-1.093.32,2.166,2.166,0,0,1-.366-.03c-1.79-.3-4.187-3.614-4.58-4.65a22.684,22.684,0,0,1-1.047-7.921c0-2.571.072-6.532.146-10.365C263.791,669.77,263.893,664.309,263.8,662.35Zm2.089,30.485c.364.961,2.5,3.6,3.512,3.769a.7.7,0,0,0,.5-.094c.091-.058.141-.112.148-.158.056-.4-.761-1.329-1.155-1.774a5.917,5.917,0,0,1-.655-.821c-1.115-1.918-.981-3.952-.85-5.918l.031-.493c.28-4.567.6-9.974.808-15.427.033-.855.028-1.78.023-2.758-.021-3.56-.043-7.6,1.8-10.475a38,38,0,0,1,6.469-7.325c2.4-2.017,4.56-3.818,6.8-5.405a75.782,75.782,0,0,1,9.288-5.357c2.069-1.067,4.21-2.168,6.234-3.38a16.5,16.5,0,0,0,3.17-2.625,27.12,27.12,0,0,1,2.106-1.93c1.605-1.29,4.631-1.9,6.962-2.056a2.579,2.579,0,0,0-.453-1.938,3.522,3.522,0,0,0-2.888-1.134,10.426,10.426,0,0,0-5.288,1.754c-11.335,7.074-31.142,20.837-34.236,23.274-1.544,1.216-3.327,3.889-3.037,9.715.1,2.009,0,7.5-.105,12.8-.072,3.826-.148,7.782-.144,10.336A21.467,21.467,0,0,0,265.885,692.835Z" transform="translate(-263.545 -626.131)" fill="#fff"/>
        </g>
      </g>
      <g id="Group_2594" data-name="Group 2594" transform="translate(289.391 103.925)">
        <g id="Group_2593" data-name="Group 2593" transform="translate(0)">
          <path id="Path_3426" data-name="Path 3426" d="M265.35,660.838c4.393-2.833,34.167-22.592,36.775-23.188,5.1-1.167,3.948,2.324,4.112,6.888.228,6.323-.112,22.786-.094,29.555a7.652,7.652,0,0,1-3.435,6.529c-1.247.766-28.407,19.647-31.7,22.39-2.954,2.457-7.559,7.162-9.967,1.111-1.495-3.76-1.415-27.087-.374-34.162C261.07,667.2,259.436,664.652,265.35,660.838Z" transform="translate(-259.897 -637.423)" fill="#e2dcd4"/>
        </g>
      </g>
      <g id="Group_2596" data-name="Group 2596" transform="translate(311.106 130.328)">
        <g id="Group_2595" data-name="Group 2595" transform="translate(0)">
          <path id="Path_3427" data-name="Path 3427" d="M333.372,734.178c1.362,3.777-.81,10.085-3.924,6.054C326.478,736.381,330.4,725.939,333.372,734.178Z" transform="translate(-328.39 -731.093)" fill="#fff"/>
        </g>
      </g>
      <g id="Group_2598" data-name="Group 2598" transform="translate(292.292 112.598)">
        <g id="Group_2597" data-name="Group 2597" transform="translate(0)">
          <path id="Path_3428" data-name="Path 3428" d="M269.017,720.87c4.411-.925,8.163-4.771,11.568-7.476,1.6-1.271,9.912-6.941,12.357-8.691,2.506-1.793,5.273-3.3,7.4-5.576,2.262-2.424,2.933-4.278,3.343-7.592a142.1,142.1,0,0,0,.649-15.116c.024-1.44-.814-8.556,1.168-8.212,1.543.269,1.063,4.262,1.1,5.272.05,1.5.062,3,.053,4.507-.026,4.588-.211,9.174-.478,13.753-.13,2.236.4,5.643-1.309,7.435-2.554,2.68-5.838,4.456-8.793,6.632-6.647,4.9-13.531,9.505-20.436,14.025-2.45,1.6-6.243,4.85-9.475,3.916-1.224-.355-2.355-.668-1.392-2.143C265.572,720.374,267.831,721.121,269.017,720.87Z" transform="translate(-264.405 -668.195)" fill="#cfc8c3"/>
        </g>
      </g>
      <path id="Path_3429" data-name="Path 3429" d="M474.172,382.619c1.108-.819,3.37-.254,4.707-.4a53.348,53.348,0,0,0,3.459,4.77c2.645,2.574,6.71,4.914,10.467,5.211a7.731,7.731,0,0,0,2.419-.127c.643-.168,1.342-.811,2.062-.59a7.541,7.541,0,0,1,3.9,4.019c-.507,1.7-6.694,2.717-11.787,1.564a23.179,23.179,0,0,1-13.388-8.723C475.421,387.506,473.175,383.355,474.172,382.619Z" transform="translate(-225.707 -350.19)" fill="#172534"/>
      <path id="Path_3430" data-name="Path 3430" d="M570.206,692.36c7.921,8.241,19.019,11.469,29.762,14.513a1.228,1.228,0,0,1-.743,2.34c-11.173-3.167-22.608-6.62-30.838-15.182C567.282,692.881,569.1,691.211,570.206,692.36Z" transform="translate(-351.868 -572.673)" fill="#eae7e7"/>
      <g id="Group_2599" data-name="Group 2599" transform="translate(269.789 43.842)">
        <path id="Path_3431" data-name="Path 3431" d="M493.318,429.839c-.1-.108-.04-.06,0,0Z" transform="translate(-493.078 -428.223)" fill="#eae7e7"/>
        <path id="Path_3432" data-name="Path 3432" d="M485.952,429.369c.1.108.04.06,0,0Z" transform="translate(-483.703 -427.932)" fill="#eae7e7"/>
        <path id="Path_3433" data-name="Path 3433" d="M485.568,424.553a.978.978,0,0,1,1.376,0,2.375,2.375,0,0,1,.477.837c.035.094.065.19.1.285h0a.266.266,0,0,0,.019.031l-.013-.015,0,.009a.97.97,0,0,1-1.4,1.339,2.384,2.384,0,0,1-.477-.837c-.035-.094-.065-.19-.1-.285h0a.253.253,0,0,0-.019-.031l.013.015,0-.009A.981.981,0,0,1,485.568,424.553Z" transform="translate(-485.29 -424.27)" fill="#eae7e7"/>
      </g>
      <path id="Path_3434" data-name="Path 3434" d="M512.863,422.29a.982.982,0,0,1,.973.973v1.112a.973.973,0,1,1-1.945,0v-1.112A.982.982,0,0,1,512.863,422.29Z" transform="translate(-249.057 -379.006)" fill="#eae7e7"/>
      <path id="Path_3435" data-name="Path 3435" d="M531.987,415.721l.008-.011c.069-.1.133-.194.2-.292a5.22,5.22,0,0,1,.549-.723.973.973,0,1,1,1.376,1.376q-.041.041-.078.085l-.008.011c-.069.1-.133.194-.2.292a5.2,5.2,0,0,1-.549.723.973.973,0,1,1-1.376-1.376C531.936,415.779,531.962,415.75,531.987,415.721Z" transform="translate(-275.184 -373.349)" fill="#eae7e7"/>
      <path id="Path_3436" data-name="Path 3436" d="M547.5,399.608a.969.969,0,0,1,.084,1.934l-.063.02-.021.007c-.031.012-.073.03-.094.04-.08.04-.157.087-.233.135l0,0c-.016.013-.069.054-.092.077a.973.973,0,0,1-1.376-1.376A2.917,2.917,0,0,1,547.5,399.608Z" transform="translate(-293.144 -362.717)" fill="#eae7e7"/>
      <path id="Path_3437" data-name="Path 3437" d="M474.925,688.683a.978.978,0,0,1,1.331.349c.34.666.771,1.28,1.112,1.945a.989.989,0,0,1-.349,1.331.978.978,0,0,1-1.331-.349c-.341-.666-.771-1.281-1.112-1.946A.988.988,0,0,1,474.925,688.683Z" transform="translate(-202.16 -570.217)" fill="#eae7e7"/>
      <path id="Path_3438" data-name="Path 3438" d="M650.89,733.736a8.17,8.17,0,0,1,.591,2.482.973.973,0,0,1-1.946,0,6.658,6.658,0,0,0-.521-1.965C648.609,733.063,650.489,732.556,650.89,733.736Z" transform="translate(-425.339 -602.182)" fill="#eae7e7"/>
      <path id="Path_3439" data-name="Path 3439" d="M276.849,1022.553a.976.976,0,0,1,1.331.349c.429.934.412,2,.834,2.919a.993.993,0,0,1-.349,1.331.975.975,0,0,1-1.331-.349c-.428-.934-.412-2-.834-2.918A.994.994,0,0,1,276.849,1022.553Z" transform="translate(52.032 -809.979)" fill="#fff"/>
      <path id="Path_3440" data-name="Path 3440" d="M287.1,963.983a32.687,32.687,0,0,1,.452,6.1.973.973,0,0,1-1.946,0,29.9,29.9,0,0,0-.382-5.578C284.989,963.275,286.864,962.751,287.1,963.983Z" transform="translate(41.128 -767.505)" fill="#fff"/>
      <path id="Path_3441" data-name="Path 3441" d="M285.138,911.475a1,1,0,0,1,.349-1.331.975.975,0,0,1,1.331.349,5.342,5.342,0,0,1-.417,4.318c-.539,1.133-2.216.145-1.68-.982A3.558,3.558,0,0,0,285.138,911.475Z" transform="translate(41.726 -729.256)" fill="#fff"/>
      <path id="Path_3442" data-name="Path 3442" d="M283.9,851.125a3.128,3.128,0,0,1,.7,2.355.973.973,0,1,1-1.946,0c0-.144,0-.289,0-.434,0-.062,0-.126-.007-.189,0-.017-.008-.077-.013-.122s-.036-.121-.041-.147-.015-.03-.024-.044l0,0c-.01-.009-.023-.021-.042-.041a.973.973,0,0,1,1.376-1.376Z" transform="translate(44.909 -686.76)" fill="#fff"/>
      <path id="Path_3443" data-name="Path 3443" d="M396.6,1092.976v5a.973.973,0,0,1-1.946,0v-5A.973.973,0,0,1,396.6,1092.976Z" transform="translate(-98.774 -859.966)" fill="#fff"/>
      <path id="Path_3444" data-name="Path 3444" d="M395.12,1026.416V1031a.973.973,0,0,1-1.946,0v-4.587A.973.973,0,0,1,395.12,1026.416Z" transform="translate(-96.878 -812.169)" fill="#fff"/>
      <path id="Path_3445" data-name="Path 3445" d="M389.529,955.691a9.808,9.808,0,0,0-.382,3.077.973.973,0,0,1-1.946,0,11.627,11.627,0,0,1,.452-3.594C388.031,953.983,389.91,954.492,389.529,955.691Z" transform="translate(-89.654 -761.197)" fill="#fff"/>
      <path id="Path_3446" data-name="Path 3446" d="M383.793,908.515a.982.982,0,0,1,.973.973v.834a.973.973,0,0,1-1.946,0v-.834A.982.982,0,0,1,383.793,908.515Z" transform="translate(-83.606 -728.177)" fill="#fff"/>
      <path id="Path_3447" data-name="Path 3447" d="M532.248,826.069l2.569,2.432a.973.973,0,0,1-1.338,1.412l-2.569-2.432A.973.973,0,0,1,532.248,826.069Z" transform="translate(-275.619 -668.776)" fill="#fff"/>
      <path id="Path_3448" data-name="Path 3448" d="M575.442,783.074A25.934,25.934,0,0,0,579,786.257c1.028.7.056,2.391-.982,1.68a28.5,28.5,0,0,1-3.949-3.488A.973.973,0,0,1,575.442,783.074Z" transform="translate(-332.102 -637.888)" fill="#fff"/>
      <path id="Path_3449" data-name="Path 3449" d="M529.071,508.984c-2.811,2.7-2.625,7.226-2.464,10.569a61.357,61.357,0,0,0,2.216,12.769c2.927,11,11.067,21,20.372,28.9,1.191,1.011-.66,2.572-1.851,1.561-9.729-8.257-18.065-18.679-21.121-30.161a63.312,63.312,0,0,1-2.264-13.79c-.146-3.819.118-8.393,3.262-11.41C528.336,506.352,530.18,507.919,529.071,508.984Z" transform="translate(-288.193 -439.885)" fill="#eae7e7"/>
      <path id="Path_3450" data-name="Path 3450" d="M468.116,503.151c-2.141,6.835-2.409,14.072-2.007,21.182a142.7,142.7,0,0,0,3.258,21.979c.3,1.411-1.839,2.01-2.144.6a152.863,152.863,0,0,1-3.308-22.094c-.493-7.434-.182-15.112,2.057-22.26C466.4,501.18,468.55,501.767,468.116,503.151Z" transform="translate(-191.038 -436.084)" fill="#eae7e7"/>
      <path id="Path_3451" data-name="Path 3451" d="M496.943,704.883a6.278,6.278,0,0,1,3.365,3.5c.416,1.188-1.464,1.694-1.876.518a4.453,4.453,0,0,0-2.471-2.337C494.843,705.993,495.827,704.315,496.943,704.883Z" transform="translate(-230.961 -581.86)" fill="#eae7e7"/>
      <path id="Path_3452" data-name="Path 3452" d="M391.081,645.482a8.8,8.8,0,0,0,2.53,2.808c.7.536.012,1.744-.7,1.2a10.382,10.382,0,0,1-3.029-3.307C389.465,645.391,390.664,644.688,391.081,645.482Z" transform="translate(-94.71 -539.036)" fill="#f4cc9d"/>
      <path id="Path_3453" data-name="Path 3453" d="M422.6,578.664a55.691,55.691,0,0,0,3.265,8.451c.394.8-.8,1.506-1.2.7a57.958,57.958,0,0,1-3.406-8.783C421,578.174,422.34,577.809,422.6,578.664Z" transform="translate(-135.61 -490.953)" fill="#f4cc9d"/>
      <path id="Path_3454" data-name="Path 3454" d="M454.091,488.906l.834,3.335a.7.7,0,0,1-1.34.37l-.834-3.335A.7.7,0,0,1,454.091,488.906Z" transform="translate(-173.494 -426.489)" fill="#f4cc9d"/>
      <path id="Path_3455" data-name="Path 3455" d="M434.278,637.877a27.422,27.422,0,0,0,3.266,5.949c.518.734-.688,1.427-1.2.7a28.81,28.81,0,0,1-3.406-6.281C432.616,637.409,433.96,637.05,434.278,637.877Z" transform="translate(-150.624 -533.488)" fill="#f4cc9d"/>
      <path id="Path_3456" data-name="Path 3456" d="M501.359,629.9a35.783,35.783,0,0,0,1.39,5c.284.853-1.058,1.215-1.34.37a35.777,35.777,0,0,1-1.39-5C499.862,629.394,501.2,629.02,501.359,629.9Z" transform="translate(-234.659 -527.736)" fill="#f4cc9d"/>
      <path id="Path_3457" data-name="Path 3457" d="M501.464,517.709a.7.7,0,0,1,1.39,0,31.256,31.256,0,0,1-1.414,10.191c-.293.841-1.635.479-1.34-.37A30.027,30.027,0,0,0,501.464,517.709Z" transform="translate(-234.74 -447.046)" fill="#f4cc9d"/>
      <path id="Path_3458" data-name="Path 3458" d="M485.228,463.073a.7.7,0,0,1,.951-.249.707.707,0,0,1,.249.951l-.834,1.668a.7.7,0,0,1-.951.249.707.707,0,0,1-.249-.951Z" transform="translate(-213.962 -408.049)" fill="#f4cc9d"/>
      <path id="Path_3459" data-name="Path 3459" d="M534.138,483.2a.7.7,0,0,1,1.39,0,15.754,15.754,0,0,1-.581,3.52.7.7,0,0,1-1.34-.369A14.09,14.09,0,0,0,534.138,483.2Z" transform="translate(-276.865 -422.262)" fill="#f4cc9d"/>
      <path id="Path_3460" data-name="Path 3460" d="M539.919,570.959a28.56,28.56,0,0,0,.531,6.487c.2.872-1.138,1.242-1.34.369a30.2,30.2,0,0,1-.581-6.856A.7.7,0,0,1,539.919,570.959Z" transform="translate(-283.202 -485.286)" fill="#f4cc9d"/>
      <path id="Path_3461" data-name="Path 3461" d="M526.823,664.074a5.734,5.734,0,0,1,1.291,2.253c.289.851-1.054,1.213-1.34.37a4.151,4.151,0,0,0-.933-1.639C525.214,664.415,526.2,663.432,526.823,664.074Z" transform="translate(-267.251 -552.487)" fill="#f4cc9d"/>
      <path id="Path_3462" data-name="Path 3462" d="M571.4,595.384a47.449,47.449,0,0,0,1.39,5.837.7.7,0,0,1-1.34.37,47.419,47.419,0,0,1-1.39-5.837C569.927,594.877,571.266,594.5,571.4,595.384Z" transform="translate(-324.436 -502.947)" fill="#f4cc9d"/>
      <path id="Path_3463" data-name="Path 3463" d="M573.962,512.923c-.151-.876,1.189-1.251,1.34-.369a13.189,13.189,0,0,1-.278,4.817c-.173.879-1.513.506-1.34-.37A11.317,11.317,0,0,0,573.962,512.923Z" transform="translate(-328.06 -443.465)" fill="#f4cc9d"/>
      <path id="Path_3464" data-name="Path 3464" d="M573.055,437.2c.792-.418,1.495.782.7,1.2a6.681,6.681,0,0,0-1.527,1.281.7.7,0,0,1-.983-.983A7.917,7.917,0,0,1,573.055,437.2Z" transform="translate(-326 -389.648)" fill="#f4cc9d"/>
      <path id="Path_3465" data-name="Path 3465" d="M626.308,485.936c.185-.877,1.525-.5,1.34.369-.577,2.732-1.595,5.371-1.921,8.154-.1.879-1.494.889-1.39,0C624.679,491.544,625.7,488.8,626.308,485.936Z" transform="translate(-394.582 -424.353)" fill="#f4cc9d"/>
      <path id="Path_3466" data-name="Path 3466" d="M629.629,575.889a7.663,7.663,0,0,0,1.017,3.819.7.7,0,0,1-1.2.7,9.147,9.147,0,0,1-1.207-4.52A.7.7,0,0,1,629.629,575.889Z" transform="translate(-398.762 -488.827)" fill="#f4cc9d"/>
      <path id="Path_3467" data-name="Path 3467" d="M600.071,641.834a9.907,9.907,0,0,0,2.045,3.307c.625.642-.357,1.626-.983.983a11.674,11.674,0,0,1-2.4-3.92C598.4,641.372,599.74,641.014,600.071,641.834Z" transform="translate(-362.002 -536.333)" fill="#f4cc9d"/>
      <path id="Path_3468" data-name="Path 3468" d="M556.611,697.516a.7.7,0,0,1,.951.25c.032.06.066.118.1.175l.016.025.036.04a2.613,2.613,0,0,0,.317.3c.017.014.172.136.042.036l.228.176a3.067,3.067,0,0,1,.262.221.695.695,0,1,1-.983.983c-.033-.032-.067-.062-.1-.093s-.2-.159-.063-.052c-.139-.107-.279-.213-.414-.326a2.626,2.626,0,0,1-.641-.781A.705.705,0,0,1,556.611,697.516Z" transform="translate(-306.498 -576.587)" fill="#f4cc9d"/>
      <path id="Path_3469" data-name="Path 3469" d="M511.985,724.064a9.332,9.332,0,0,0,2.614,1.6.7.7,0,0,1-.369,1.341,10.257,10.257,0,0,1-2.946-1.738C510.548,724.762,511.243,723.557,511.985,724.064Z" transform="translate(-250.052 -595.63)" fill="#eae7e7"/>
      <path id="Path_3470" data-name="Path 3470" d="M524.973,733.121a5.483,5.483,0,0,0,2.473,1.489.7.7,0,0,1-.37,1.341,6.917,6.917,0,0,1-3.086-1.847C523.35,733.476,524.333,732.493,524.973,733.121Z" transform="translate(-266.513 -602.077)" fill="#eae7e7"/>
      <path id="Path_3471" data-name="Path 3471" d="M537.58,744.858a6.512,6.512,0,0,1,1.53,1.221.7.7,0,0,1-.983.983,5.254,5.254,0,0,0-1.249-1,.695.695,0,0,1,.7-1.2Z" transform="translate(-281.484 -610.587)" fill="#eae7e7"/>
      <path id="Path_3472" data-name="Path 3472" d="M593.959,686.679a14.724,14.724,0,0,0,3.473,3.5c.758.473.061,1.676-.7,1.2a15.658,15.658,0,0,1-3.754-3.723C592.422,686.969,593.4,685.979,593.959,686.679Z" transform="translate(-355.79 -568.699)" fill="#f4cc9d"/>
      <path id="Path_3473" data-name="Path 3473" d="M653.262,627.71c.559,1.169.832,2.447,1.39,3.613.384.8-.814,1.51-1.2.7-.559-1.169-.832-2.447-1.39-3.614C651.678,627.607,652.876,626.9,653.262,627.71Z" transform="translate(-429.438 -526.267)" fill="#f4cc9d"/>
      <path id="Path_3474" data-name="Path 3474" d="M682.753,534.473a.7.7,0,0,1,1.39,0,27.11,27.11,0,0,1-.3,4.91c-.162.881-1.5.507-1.34-.369A25.18,25.18,0,0,0,682.753,534.473Z" transform="translate(-467.451 -459.085)" fill="#f4cc9d"/>
      <path id="Path_3475" data-name="Path 3475" d="M658.788,451.479c.292-.841,1.634-.479,1.34.37-.533,1.536-1.328,2.948-1.945,4.447-.336.817-1.681.459-1.34-.369C657.459,454.429,658.256,453.013,658.788,451.479Z" transform="translate(-436.234 -399.625)" fill="#f4cc9d"/>
      <path id="Path_3476" data-name="Path 3476" d="M692.839,465.281c.286-.844,1.629-.482,1.34.369a69.287,69.287,0,0,0-2.5,7.783c-.186.877-1.526.5-1.34-.37A69.233,69.233,0,0,1,692.839,465.281Z" transform="translate(-479.736 -409.535)" fill="#f4cc9d"/>
      <path id="Path_3477" data-name="Path 3477" d="M707.807,557.312a12.277,12.277,0,0,0-.253,2.873.7.7,0,0,1-1.39,0,13.9,13.9,0,0,1,.3-3.242C706.674,556.071,708.014,556.441,707.807,557.312Z" transform="translate(-497.811 -475.347)" fill="#f4cc9d"/>
      <path id="Path_3478" data-name="Path 3478" d="M679.979,633.637a26.966,26.966,0,0,0,2.671,4.585c.543.7-.433,1.689-.983.983a28.553,28.553,0,0,1-2.888-4.866C678.379,633.54,679.578,632.836,679.979,633.637Z" transform="translate(-465.05 -530.526)" fill="#f4cc9d"/>
      <path id="Path_3479" data-name="Path 3479" d="M636.095,688.516a12.242,12.242,0,0,1,2.668,1.46c.742.494.047,1.7-.7,1.2a10.9,10.9,0,0,0-2.336-1.319C634.887,689.559,635.248,688.216,636.095,688.516Z" transform="translate(-409.073 -570.159)" fill="#f4cc9d"/>
      <path id="Path_3480" data-name="Path 3480" d="M592.168,411.209v1.39a.7.7,0,0,1-1.39,0v-1.39A.7.7,0,0,1,592.168,411.209Z" transform="translate(-349.626 -370.566)" fill="#f4cc9d"/>
      <path id="Path_3481" data-name="Path 3481" d="M868.1,560.054c22.468,1.065,44.889,2.913,67.286,4.893a3.143,3.143,0,0,1,3.143,3.024,3.094,3.094,0,0,1-3.177,2.987c-22.4-1.979-44.818-3.828-67.286-4.893C864.008,565.874,864.024,559.861,868.1,560.054Z" transform="translate(-773.294 -477.935)" fill="#005468"/>
    </g>
  </g>
</svg>
