<svg xmlns="http://www.w3.org/2000/svg" width="294.117" height="266.017" viewBox="0 0 294.117 266.017">
  <g id="Group_2601" data-name="Group 2601" transform="translate(-108.692 -179.277)">
    <path id="Path_3509" data-name="Path 3509" d="M649.876,938.142l-.76-.187a.978.978,0,1,0-.469,1.9l.76.188a.978.978,0,0,0,.469-1.9Z" transform="translate(-376.608 -529.874)" fill="#913733"/>
    <path id="Path_3510" data-name="Path 3510" d="M641.855,975.95l-.042.009a.974.974,0,0,0-1.53,1.185,1.678,1.678,0,0,0,.944.729,2.346,2.346,0,0,0,1.182-.047.983.983,0,0,0,.661-1.216A1,1,0,0,0,641.855,975.95Z" transform="translate(-371.187 -556.23)" fill="#913733"/>
    <path id="Path_3511" data-name="Path 3511" d="M692.455,949.361a.767.767,0,0,0,.408,1.053c.549.182,1.139.3,1.644.465a.906.906,0,0,0,1.131-.41.767.767,0,0,0-.409-1.053c-.548-.183-1.138-.3-1.645-.465A.9.9,0,0,0,692.455,949.361Z" transform="translate(-407.672 -537.534)" fill="#913733"/>
    <path id="Path_3512" data-name="Path 3512" d="M690.367,985.168c-.1-.09-.2-.184-.3-.279a1.3,1.3,0,0,0-1.618-.1.888.888,0,0,0-.115,1.38,2.735,2.735,0,0,0,1.655.908,1.111,1.111,0,0,0,1.226-.907,1,1,0,0,0-.845-1Z" transform="translate(-404.654 -562.443)" fill="#913733"/>
    <path id="Path_3519" data-name="Path 3519" d="M386.063,357.393s-1.525-81.284-13.491-84.091c-9.391-2.2-66.326,64.517-66.326,64.517s-87.078-3.516-86.269,12.873c1,20.325,41.51,53.582,41.51,53.582s-37.166,70.656-24.408,74.741c27.285,8.736,69.96-16.537,81.271-14.269,6.124,1.227,39.856,46.373,61.32,44.928,14.227-.958,18.151-72.7,18.151-72.7S460.8,412.425,458.2,400.052C455.026,384.9,386.063,357.393,386.063,357.393Z" transform="translate(-77.723 -65.633)" fill="#f9941e"/>
    <path id="Path_3520" data-name="Path 3520" d="M579.434,895.372c-2.33-2.78-4.988-5.431-6.028-9.046-.585-2.035-3.613-.909-3.031,1.116,1.127,3.916,3.868,6.785,6.394,9.8C578.1,898.822,580.773,896.969,579.434,895.372Z" transform="translate(-322.408 -493.082)" fill="#dc7917"/>
    <path id="Path_3521" data-name="Path 3521" d="M645.7,957.253a23.915,23.915,0,0,1-3.552-4.743c-.982-1.862-3.634.027-2.665,1.865a27.463,27.463,0,0,0,4.1,5.38,1.581,1.581,0,0,0,2.264-.18A1.713,1.713,0,0,0,645.7,957.253Z" transform="translate(-370.577 -539.524)" fill="#dc7917"/>
    <path id="Path_3522" data-name="Path 3522" d="M676.492,1000.915c-3.572.311-8.384-.422-9.829-4.157-.748-1.933-3.837-.835-3.087,1.1,2.006,5.182,7.941,6.752,13.1,6.3C678.768,1003.976,678.581,1000.733,676.492,1000.915Z" transform="translate(-387.474 -570.257)" fill="#dc7917"/>
    <path id="Path_3523" data-name="Path 3523" d="M766.318,830.888c-3.635,11.961,1.346,25.5-4.537,36.839-.97,1.872,1.754,3.6,2.727,1.724,6.146-11.847,1.131-25.3,4.886-37.648A1.6,1.6,0,0,0,766.318,830.888Z" transform="translate(-456.002 -454.317)" fill="#dc7917"/>
    <path id="Path_3524" data-name="Path 3524" d="M392.711,509.784a60.829,60.829,0,0,0-11.391-1.17c-3.02-.1-6.228.1-9.191-.539-2.016-.433-2.317,2.846-.321,3.276,2.782.6,5.79.434,8.626.519a58.678,58.678,0,0,1,11.145,1.012C393.566,513.332,394.727,510.24,392.711,509.784Z" transform="translate(-182.827 -229.619)" fill="#fff"/>
    <path id="Path_3525" data-name="Path 3525" d="M497.825,503.358a1.6,1.6,0,0,0-2.264.179,3.856,3.856,0,0,1-3.323,1.225,1.658,1.658,0,0,0-1.869,1.344,1.629,1.629,0,0,0,1.287,1.9,7.352,7.352,0,0,0,6.317-2.328A1.682,1.682,0,0,0,497.825,503.358Z" transform="translate(-266.562 -226.081)" fill="#fff"/>
    <path id="Path_3526" data-name="Path 3526" d="M572.187,385.828c-7.836,4.911-14.334,12.045-19.447,19.816-1.151,1.749,1.251,3.908,2.411,2.144,4.972-7.556,11.2-14.47,18.821-19.246C575.754,387.427,573.953,384.721,572.187,385.828Z" transform="translate(-309.93 -144.082)" fill="#fff"/>
    <path id="Path_3527" data-name="Path 3527" d="M275.689,518.617a10.851,10.851,0,0,1-3.354.83,1.668,1.668,0,0,0-1.474,1.788,1.617,1.617,0,0,0,1.723,1.494,13.992,13.992,0,0,0,4.157-1.013C278.7,521,277.645,517.9,275.689,518.617Z" transform="translate(-113.263 -236.935)" fill="#fff"/>
    <path id="Path_3528" data-name="Path 3528" d="M158.221,681.51c-9.145,4.287-19.341,5.339-28.6,9.272-1.565.664-.688,3.158.881,2.492,9.264-3.933,19.46-4.985,28.6-9.271C160.635,683.285,159.763,680.787,158.221,681.51Z" transform="translate(-14.04 -350.691)" fill="#ffb600"/>
    <path id="Path_3529" data-name="Path 3529" d="M220.674,382.554c-6.086-3.775-12.5-7.1-17.921-11.834-1.271-1.11-3.207.693-1.92,1.816,5.608,4.9,12.153,8.359,18.445,12.262A1.322,1.322,0,0,0,220.674,382.554Z" transform="translate(-64.059 -133.469)" fill="#ffb600"/>
    <path id="Path_3530" data-name="Path 3530" d="M570.746,224.279c-.153-1.7-2.773-1.344-2.62.347a19.539,19.539,0,0,0,7.982,13.989,1.322,1.322,0,0,0,1.581-2.118A16.9,16.9,0,0,1,570.746,224.279Z" transform="translate(-320.883 -30.654)" fill="#ffb600"/>
    <path id="Path_3531" data-name="Path 3531" d="M890.651,424.771c-5.391,4.545-10.774,9.135-15.319,14.553a1.323,1.323,0,0,0,2.014,1.712c4.4-5.249,9.6-9.7,14.818-14.1C893.457,425.847,891.955,423.671,890.651,424.771Z" transform="translate(-535.233 -171.252)" fill="#ffb600"/>
    <path id="Path_3532" data-name="Path 3532" d="M903.975,1004.73a22.875,22.875,0,0,1-7.536-6.884c-.983-1.384-3.247-.019-2.26,1.371a25.939,25.939,0,0,0,8.536,7.835A1.322,1.322,0,0,0,903.975,1004.73Z" transform="translate(-548.448 -571.321)" fill="#ffb600"/>
    <path id="Path_3533" data-name="Path 3533" d="M386.23,307.952a2.208,2.208,0,0,0-2.936,1.041,2.249,2.249,0,0,0,1.041,2.937,25.92,25.92,0,0,1,7.516,7.727c2.275,3.28,4.181,6.8,6.2,10.238a2.21,2.21,0,0,0,3.067.544,2.243,2.243,0,0,0,.544-3.067C397.472,320.247,393.547,312.373,386.23,307.952Z" transform="translate(-191.642 -89.703)" fill="#ffb600"/>
    <path id="Path_3534" data-name="Path 3534" d="M818.541,310.984a28.572,28.572,0,0,0-6.16,6.159c-1.582,2.362,2.124,4.745,3.7,2.387a24.832,24.832,0,0,1,5.394-5.26C823.7,312.485,820.744,309.214,818.541,310.984Z" transform="translate(-491.218 -91.634)" fill="#ffb600"/>
    <path id="Path_3535" data-name="Path 3535" d="M990.322,519.747c-9.4,4.152-19.009,7.826-28.412,11.978a2.2,2.2,0,0,0-.755,3.022,2.256,2.256,0,0,0,3.022.754c9.4-4.151,19.009-7.826,28.413-11.978a2.2,2.2,0,0,0,.753-3.022A2.254,2.254,0,0,0,990.322,519.747Z" transform="translate(-595.189 -237.609)" fill="#ffb600"/>
    <path id="Path_3536" data-name="Path 3536" d="M969.881,840.612a42.466,42.466,0,0,1-8.267-5.659c-2.208-1.786-4.979,1.638-2.771,3.424a47.472,47.472,0,0,0,9.276,6.272C970.683,845.873,972.444,841.834,969.881,840.612Z" transform="translate(-593.216 -457.602)" fill="#ffb600"/>
    <path id="Path_3538" data-name="Path 3538" d="M211.443,813.213c-1.583,2.76-4.151,4.724-6.341,6.973-.769.789.537,1.885,1.3,1.1,2.312-2.374,4.91-4.431,6.581-7.343C213.529,812.991,211.985,812.268,211.443,813.213Z" transform="translate(-67.173 -442.459)" fill="#ffb600"/>
    <path id="Path_3539" data-name="Path 3539" d="M468.557,970.4c-.823-.733-1.923.569-1.1,1.3,1.108.986,0,4.359-.264,5.522a78.674,78.674,0,0,1-2.632,8.558c-.362,1.027,1.173,1.767,1.538.734a81.722,81.722,0,0,0,2.973-9.9C469.455,974.825,470.159,971.829,468.557,970.4Z" transform="translate(-248.513 -552.406)" fill="#ffb600"/>
    <path id="Path_3540" data-name="Path 3540" d="M254.175,1003.533a6.551,6.551,0,0,0-2.718,1.614,18.445,18.445,0,0,0-1.724,2.371,1.733,1.733,0,0,0,.195,2.4,1.71,1.71,0,0,0,2.4-.194c.48-.656.9-1.353,1.4-2a2.752,2.752,0,0,1,1.629-1C257.451,1006.074,256.268,1002.879,254.175,1003.533Z" transform="translate(-98.236 -575.635)" fill="#ffb600"/>
    <path id="Path_3541" data-name="Path 3541" d="M384.118,1015.108l-1.965,11.07a1.7,1.7,0,0,0,3.355.6l1.964-11.071A1.7,1.7,0,0,0,384.118,1015.108Z" transform="translate(-190.976 -582.834)" fill="#ffb600"/>
    <path id="Path_3542" data-name="Path 3542" d="M741.549,180.826a28.566,28.566,0,0,0-1.74,8.535c-.016,2.843,4.389,2.786,4.4-.052a24.816,24.816,0,0,1,1.6-7.363C746.678,179.234,742.409,178.136,741.549,180.826Z" transform="translate(-440.799)" fill="#ffb600"/>
    <path id="Path_3543" data-name="Path 3543" d="M131.423,513.075c-6.974-1.63-14.111-2.728-20.765-5.48-1.559-.645-2.816,1.682-1.238,2.335,6.879,2.845,14.189,4.033,21.4,5.718A1.322,1.322,0,0,0,131.423,513.075Z" transform="translate(0 -229.233)" fill="#ffb600"/>
    <path id="Path_3544" data-name="Path 3544" d="M1057.514,731.643c-3.182,0-6.162-1.251-9.2-2.032-1.067-.274-1.369,1.4-.312,1.675,3.21.825,6.286,2.056,9.644,2.056C1058.744,733.342,1058.6,731.643,1057.514,731.643Z" transform="translate(-655.594 -384.356)" fill="#ffb600"/>
  </g>
</svg>
